<?xml version="1.0" encoding="UTF-8" standalone="no"?>
<!-- Created with Inkscape (http://www.inkscape.org/) -->

<svg
   xmlns:dc="http://purl.org/dc/elements/1.1/"
   xmlns:cc="http://creativecommons.org/ns#"
   xmlns:rdf="http://www.w3.org/1999/02/22-rdf-syntax-ns#"
   xmlns:svg="http://www.w3.org/2000/svg"
   xmlns="http://www.w3.org/2000/svg"
   xmlns:sodipodi="http://sodipodi.sourceforge.net/DTD/sodipodi-0.dtd"
   xmlns:inkscape="http://www.inkscape.org/namespaces/inkscape"
   width="66.040001mm"
   height="128.5mm"
   viewBox="0 0 66.040005 128.50002"
   version="1.1"
   id="svg8"
   inkscape:version="0.92.4 (f8dce91, 2019-08-02)"
   sodipodi:docname="Ratchets.svg">
  <defs
     id="defs2" />
  <sodipodi:namedview
     id="base"
     pagecolor="#ffffff"
     bordercolor="#666666"
     borderopacity="1.0"
     inkscape:pageopacity="0.0"
     inkscape:pageshadow="2"
     inkscape:zoom="16"
     inkscape:cx="115.74971"
     inkscape:cy="61.284388"
     inkscape:document-units="mm"
     inkscape:current-layer="layer1"
     showgrid="true"
     units="mm"
     inkscape:snap-bbox="true"
     inkscape:snap-page="true"
     inkscape:bbox-nodes="true"
     inkscape:snap-bbox-edge-midpoints="true"
     inkscape:window-width="3840"
     inkscape:window-height="2086"
     inkscape:window-x="1920"
     inkscape:window-y="0"
     inkscape:window-maximized="1"
     showguides="false">
    <inkscape:grid
       type="xygrid"
       id="grid950" />
  </sodipodi:namedview>
  <metadata
     id="metadata5">
    <rdf:RDF>
      <cc:Work
         rdf:about="">
        <dc:format>image/svg+xml</dc:format>
        <dc:type
           rdf:resource="http://purl.org/dc/dcmitype/StillImage" />
        <dc:title />
      </cc:Work>
    </rdf:RDF>
  </metadata>
  <g
     inkscape:groupmode="layer"
     id="layer2"
     inkscape:label="components"
     style="display:inline">
    <g
       id="g1072"
       transform="matrix(0.10531984,0,0,0.09447163,-4.8265523,25.928589)">
      <path
         inkscape:label="smallSwirl"
         d="m -96.257118,16.153252 c 0.820778,0.689454 -0.524427,1.446545 -1.145918,1.364188 -1.684202,-0.223184 -2.133854,-2.316478 -1.582458,-3.656024 0.986317,-2.396134 4.041994,-2.932504 6.16613,-1.800728 3.117255,1.660926 3.752335,5.790018 2.018998,8.676236 -2.310266,3.846873 -7.545915,4.581041 -11.186344,2.237268 -4.5811,-2.9494 -5.41431,-9.305535 -2.45554,-13.6964481 3.58347,-5.3179837 11.06725,-6.2502118 16.206558,-2.6738082 6.056496,4.2146683 7.087768,12.8302603 2.892078,18.7166593 -4.84409,6.796082 -14.594144,7.926428 -21.226766,3.110349 -7.53641,-5.472336 -8.76586,-16.358639 -3.32862,-23.736872 6.09976,-8.2772626 18.123581,-9.6058513 26.246979,-3.5468882 9.018512,6.7265975 10.446264,19.8888552 3.765159,28.7570832 -7.35299,9.760061 -21.654388,11.286998 -31.267188,3.983428 -10.50184,-7.979043 -12.12799,-23.420131 -4.2017,-33.77729487 8.60483,-11.24380913 25.186036,-12.96917413 36.287401,-4.41996833 11.985925,9.2304081 13.810527,26.9520742 4.638239,38.7975072 -1.549898,2.001596 -3.367088,3.794298 -5.38733,5.319645"
         sodipodi:t0="0"
         sodipodi:argument="-18.150896"
         sodipodi:radius="28.806084"
         sodipodi:revolution="4.0421405"
         sodipodi:expansion="1"
         sodipodi:cy="16.153252"
         sodipodi:cx="-96.257118"
         id="path1064"
         style="fill:none;fill-rule:evenodd;stroke:#000000;stroke-width:0.26458332"
         sodipodi:type="spiral" />
      <ellipse
         ry="0.549573"
         rx="0.59049863"
         cy="16.235104"
         cx="-96.08757"
         id="path1068"
         style="fill:#cccccc;fill-opacity:1;stroke-width:0.26458332" />
    </g>
  </g>
  <g
     inkscape:label="Layer 1"
     inkscape:groupmode="layer"
     id="layer1"
     transform="translate(0,-168.49998)">
    <path
       inkscape:connector-curvature="0"
       id="path25069"
       d="m 0,168.49998 h 66.039999 v 128.5 H 0 Z m 0,0"
       style="display:inline;fill:#e6e6e6;fill-opacity:1;fill-rule:nonzero;stroke:none;stroke-width:0.32634056" />
    <path
       inkscape:connector-curvature="0"
       id="path36429-5-3-6"
       d="m 38.1,277.42743 c 0,-0.54984 -0.753007,-1.00045 -1.671858,-1.00045 H 23.59185 c -0.918854,0 -1.671903,0.45061 -1.671903,1.00045 v 12.1721 c 0,0.54983 0.753049,1.00045 1.671903,1.00045 h 12.836292 c 0.918851,0 1.671858,-0.45062 1.671858,-1.00045 z m 0,0"
       style="display:inline;fill:#cccccc;fill-opacity:1;fill-rule:nonzero;stroke:none;stroke-width:0.45604208"
       inkscape:export-filename="/home/vortico/pics/tmp/LFOs.png"
       inkscape:export-xdpi="150.22649"
       inkscape:export-ydpi="150.22649" />
    <path
       inkscape:connector-curvature="0"
       id="path36429-5"
       d="m 12.782,178.99619 c 0,-0.54983 -0.450592,-1.00044 -1.000426,-1.00044 H 4.1004517 C 3.550618,177.99575 3.1,178.44636 3.1,178.99619 v 12.17212 c 0,0.54982 0.450618,1.00044 1.0004517,1.00044 h 7.6811223 c 0.549834,0 1.000426,-0.45062 1.000426,-1.00044 z m 0,0"
       style="display:inline;fill:#cccccc;fill-opacity:1;fill-rule:nonzero;stroke:none;stroke-width:0.35277474"
       inkscape:export-filename="/home/vortico/pics/tmp/LFOs.png"
       inkscape:export-xdpi="150.22649"
       inkscape:export-ydpi="150.22649" />
    <path
       inkscape:connector-curvature="0"
       id="path36429-5-0"
       d="m 22.994186,179.06258 c 0,-0.54984 -0.450592,-1.00045 -1.000426,-1.00045 h -7.681122 c -0.549834,0 -1.000452,0.45061 -1.000452,1.00045 v 12.1721 c 0,0.54983 0.450618,1.00045 1.000452,1.00045 h 7.681122 c 0.549834,0 1.000426,-0.45062 1.000426,-1.00045 z m 0,0"
       style="display:inline;fill:#cccccc;fill-opacity:1;fill-rule:nonzero;stroke:none;stroke-width:0.35277453"
       inkscape:export-filename="/home/vortico/pics/tmp/LFOs.png"
       inkscape:export-xdpi="150.22649"
       inkscape:export-ydpi="150.22649" />
    <rect
       style="fill:#1a1a1a;stroke-width:0.30285016"
       id="rect1162"
       width="60.328709"
       height="82.243744"
       x="3.6953125"
       y="193.67697" />
    <g
       id="g7081"
       transform="matrix(2.1903468,0,0,0.94025417,-8.9507104,4.865689)"
       style="fill:#ffffff">
      <g
         id="text369-1-8"
         style="font-style:normal;font-weight:normal;font-size:4.7239871px;line-height:1.25;font-family:sans-serif;letter-spacing:0px;word-spacing:0px;display:inline;fill:#ffffff;fill-opacity:1;stroke:none;stroke-width:0.11809967"
         transform="matrix(0.91766491,0,0,1.0897224,-13.873512,80.637364)"
         aria-label="CV">
        <path
           inkscape:connector-curvature="0"
           id="path5273"
           style="font-style:normal;font-variant:normal;font-weight:normal;font-stretch:normal;font-size:2.82222223px;font-family:Ubuntu;-inkscape-font-specification:'Ubuntu, Normal';font-variant-ligatures:normal;font-variant-caps:normal;font-variant-numeric:normal;font-feature-settings:normal;text-align:start;writing-mode:lr-tb;text-anchor:start;fill:#ffffff;stroke-width:0.11809967"
           d="m 9.4174478,118.20238 q -0.2060222,0 -0.3753555,-0.0677 -0.1693334,-0.0677 -0.2906889,-0.19756 -0.1213556,-0.12982 -0.1890889,-0.31891 -0.064911,-0.19191 -0.064911,-0.43744 0,-0.24554 0.073378,-0.43462 0.0762,-0.19192 0.2032,-0.32174 0.127,-0.12982 0.2963333,-0.19755 0.1693333,-0.0677 0.3612444,-0.0677 0.1213556,0 0.2173111,0.0169 0.098778,0.0169 0.1693334,0.0395 0.073378,0.0226 0.1185333,0.0451 0.045156,0.0226 0.062089,0.0339 l -0.079022,0.22578 q -0.0254,-0.0169 -0.073378,-0.0367 -0.047978,-0.0198 -0.1100667,-0.0395 -0.059267,-0.0198 -0.1326444,-0.0311 -0.070556,-0.0141 -0.1439333,-0.0141 -0.1552223,0 -0.2794,0.0536 -0.1241778,0.0536 -0.2116667,0.15523 -0.087489,0.1016 -0.1354667,0.24835 -0.045155,0.14394 -0.045155,0.32456 0,0.17498 0.039511,0.31891 0.042333,0.14393 0.1241778,0.24835 0.081844,0.1016 0.2032,0.15805 0.1241777,0.0564 0.2878666,0.0564 0.1890889,0 0.3132667,-0.0395 0.1241778,-0.0395 0.1862667,-0.0705 l 0.070556,0.22577 q -0.019756,0.0141 -0.070556,0.0367 -0.0508,0.0198 -0.127,0.0395 -0.0762,0.0198 -0.1778,0.0339 -0.1016,0.0141 -0.2201334,0.0141 z" />
        <path
           inkscape:connector-curvature="0"
           id="path5275"
           style="font-style:normal;font-variant:normal;font-weight:normal;font-stretch:normal;font-size:2.82222223px;font-family:Ubuntu;-inkscape-font-specification:'Ubuntu, Normal';font-variant-ligatures:normal;font-variant-caps:normal;font-variant-numeric:normal;font-feature-settings:normal;text-align:start;writing-mode:lr-tb;text-anchor:start;fill:#ffffff;stroke-width:0.11809967"
           d="m 11.953832,116.20425 q -0.107245,0.31044 -0.206022,0.57573 -0.09596,0.26247 -0.189089,0.49954 -0.09313,0.23706 -0.186267,0.45437 -0.09031,0.21449 -0.186267,0.42616 h -0.256822 q -0.09596,-0.21167 -0.189089,-0.42616 -0.09031,-0.21731 -0.186266,-0.45437 -0.09313,-0.23707 -0.191912,-0.49954 -0.09878,-0.26529 -0.2032,-0.57573 h 0.301978 q 0.1524,0.44591 0.299156,0.85795 0.146755,0.41205 0.301978,0.77329 0.155222,-0.35842 0.301977,-0.77046 0.146756,-0.41487 0.296334,-0.86078 z" />
      </g>
      <path
         style="fill:#ffffff;stroke:#000000;stroke-width:0.23495001;stroke-linecap:round;stroke-linejoin:round;stroke-miterlimit:10;stroke-opacity:1"
         d="M 7.1350188,207.88541 H 31.134917"
         id="path21619"
         inkscape:connector-curvature="0" />
      <path
         style="fill:#ffffff;stroke:#000000;stroke-width:0.23495001;stroke-linecap:round;stroke-linejoin:round;stroke-miterlimit:10;stroke-opacity:1"
         d="M 7.1350188,217.88583 H 31.134917"
         id="path21621"
         inkscape:connector-curvature="0" />
      <path
         style="fill:#ffffff;stroke:#000000;stroke-width:0.23495001;stroke-linecap:round;stroke-linejoin:round;stroke-miterlimit:10;stroke-opacity:1"
         d="M 7.1350188,227.88625 H 31.134917"
         id="path21623"
         inkscape:connector-curvature="0" />
      <path
         style="fill:#ffffff;stroke:#000000;stroke-width:0.23495001;stroke-linecap:round;stroke-linejoin:round;stroke-miterlimit:10;stroke-opacity:1"
         d="M 7.1350188,237.8853 H 31.134917"
         id="path21625"
         inkscape:connector-curvature="0" />
      <path
         style="fill:#ffffff;stroke:#000000;stroke-width:0.23495001;stroke-linecap:round;stroke-linejoin:round;stroke-miterlimit:10;stroke-opacity:1"
         d="M 7.1350188,247.88572 H 31.134917"
         id="path21627"
         inkscape:connector-curvature="0" />
      <path
         style="fill:#ffffff;stroke:#000000;stroke-width:0.23495001;stroke-linecap:round;stroke-linejoin:round;stroke-miterlimit:10;stroke-opacity:1"
         d="M 7.1350188,257.88615 H 31.134917"
         id="path21629"
         inkscape:connector-curvature="0" />
      <path
         style="fill:#ffffff;stroke:#000000;stroke-width:0.23495001;stroke-linecap:round;stroke-linejoin:round;stroke-miterlimit:10;stroke-opacity:1"
         d="M 7.1350188,267.88519 H 31.134917"
         id="path21631"
         inkscape:connector-curvature="0" />
      <path
         style="fill:#ffffff;stroke:#000000;stroke-width:0.23495001;stroke-linecap:round;stroke-linejoin:round;stroke-miterlimit:10;stroke-opacity:1"
         d="M 7.1350188,277.88561 H 31.134917"
         id="path21633"
         inkscape:connector-curvature="0" />
      <path
         style="fill:#ffffff;stroke:#000000;stroke-width:0.23495001;stroke-linecap:round;stroke-linejoin:round;stroke-miterlimit:10;stroke-opacity:1"
         d="M 7.1350188,287.88604 H 31.134917"
         id="path21635"
         inkscape:connector-curvature="0" />
    </g>
    <g
       aria-label="BPM"
       style="font-style:normal;font-variant:normal;font-weight:normal;font-stretch:normal;font-size:10.58333302px;line-height:1.25;font-family:sans-serif;-inkscape-font-specification:'sans-serif, Normal';font-variant-ligatures:normal;font-variant-caps:normal;font-variant-numeric:normal;font-feature-settings:normal;text-align:center;letter-spacing:0px;word-spacing:0px;writing-mode:lr-tb;text-anchor:middle;fill:#000000;fill-opacity:1;stroke:none;stroke-width:0.26458332"
       id="text1155"
       transform="matrix(0.20651531,0,0,0.20738014,12.532332,134.67718)">
      <path
         d="m -31.757567,219.61589 v 2.8267 h 1.674317 q 0.842325,0 1.245402,-0.34624 0.408243,-0.3514 0.408243,-1.0697 0,-0.72347 -0.408243,-1.06453 -0.403077,-0.34623 -1.245402,-0.34623 z m 0,-3.17294 v 2.32544 h 1.545125 q 0.764812,0 1.136882,-0.28422 0.377238,-0.28939 0.377238,-0.8785 0,-0.58394 -0.377238,-0.87333 -0.37207,-0.28939 -1.136882,-0.28939 z m -1.043864,-0.85783 h 2.666504 q 1.193726,0 1.839681,0.4961 0.645955,0.49609 0.645955,1.41076 0,0.70797 -0.330729,1.12655 -0.330729,0.41858 -0.971517,0.52193 0.769979,0.16537 1.193726,0.69247 0.428914,0.52193 0.428914,1.30741 0,1.03353 -0.702799,1.5968 -0.7028,0.56328 -1.999878,0.56328 h -2.769857 z"
         style="font-style:normal;font-variant:normal;font-weight:normal;font-stretch:normal;font-family:Saab;-inkscape-font-specification:Saab;stroke-width:0.26458332"
         id="path1157"
         inkscape:connector-curvature="0" />
      <path
         d="m -24.502196,216.44295 v 2.89905 h 1.312582 q 0.728637,0 1.126546,-0.37724 0.397908,-0.37724 0.397908,-1.07487 0,-0.69246 -0.397908,-1.0697 -0.397909,-0.37724 -1.126546,-0.37724 z m -1.043864,-0.85783 h 2.356446 q 1.297078,0 1.958536,0.58912 0.666626,0.58394 0.666626,1.71565 0,1.14205 -0.666626,1.726 -0.661458,0.58394 -1.958536,0.58394 h -1.312582 v 3.10059 h -1.043864 z"
         style="font-style:normal;font-variant:normal;font-weight:normal;font-stretch:normal;font-family:Saab;-inkscape-font-specification:Saab;stroke-width:0.26458332"
         id="path1159"
         inkscape:connector-curvature="0" />
      <path
         d="m -19.158853,215.58512 h 1.555461 l 1.968872,5.25033 1.979207,-5.25033 h 1.555461 v 7.7153 h -1.018026 v -6.77479 l -1.989542,5.29167 h -1.049032 l -1.989543,-5.29167 v 6.77479 h -1.012858 z"
         style="font-style:normal;font-variant:normal;font-weight:normal;font-stretch:normal;font-family:Saab;-inkscape-font-specification:Saab;stroke-width:0.26458332"
         id="path1161"
         inkscape:connector-curvature="0" />
    </g>
    <g
       aria-label="RESET"
       style="font-style:normal;font-variant:normal;font-weight:normal;font-stretch:normal;font-size:10.58333302px;line-height:1.25;font-family:sans-serif;-inkscape-font-specification:'sans-serif, Normal';font-variant-ligatures:normal;font-variant-caps:normal;font-variant-numeric:normal;font-feature-settings:normal;text-align:center;letter-spacing:0px;word-spacing:0px;writing-mode:lr-tb;text-anchor:middle;fill:#000000;fill-opacity:1;stroke:none;stroke-width:0.26458332"
       id="text1166"
       transform="matrix(0.20695699,0,0,0.19988307,20.428734,140.23349)">
      <path
         d="m -23.79915,200.65682 q 0.335896,0.11369 0.651123,0.48576 0.320393,0.37207 0.640787,1.02319 l 1.059367,2.1084 h -1.121378 l -0.98702,-1.97921 q -0.382406,-0.77514 -0.744141,-1.02836 -0.356567,-0.25321 -0.976684,-0.25321 h -1.136882 v 3.26078 h -1.043864 v -7.71529 h 2.356446 q 1.322916,0 1.974039,0.55294 0.651123,0.55293 0.651123,1.66915 0,0.72863 -0.341064,1.20922 -0.335897,0.48059 -0.981852,0.66663 z m -2.614828,-3.24011 v 2.73885 h 1.312582 q 0.754475,0 1.136881,-0.34623 0.387573,-0.3514 0.387573,-1.02836 0,-0.67697 -0.387573,-1.01803 -0.382406,-0.34623 -1.136881,-0.34623 z"
         style="stroke-width:0.26458332"
         id="path1168"
         inkscape:connector-curvature="0" />
      <path
         d="m -20.099118,196.55888 h 4.878255 v 0.8785 h -3.834391 v 2.2841 h 3.674194 v 0.8785 h -3.674194 v 2.79569 h 3.927409 v 0.8785 h -4.971273 z"
         style="stroke-width:0.26458332"
         id="path1170"
         inkscape:connector-curvature="0" />
      <path
         d="m -8.7768119,196.81209 v 1.01803 q -0.5942789,-0.28422 -1.1213785,-0.42375 -0.5270996,-0.13952 -1.0180256,-0.13952 -0.852661,0 -1.317749,0.33073 -0.45992,0.33072 -0.45992,0.94051 0,0.51159 0.304891,0.77514 0.310058,0.25838 1.167887,0.41858 l 0.630452,0.12919 q 1.1678877,0.22221 1.7208255,0.78548 0.5581055,0.55811 0.5581055,1.49862 0,1.12138 -0.7544759,1.70016 -0.7493083,0.57877 -2.2014161,0.57877 -0.54777,0 -1.167887,-0.12402 -0.61495,-0.12403 -1.276408,-0.3669 v -1.07487 q 0.63562,0.35656 1.245402,0.53743 0.609782,0.18087 1.198893,0.18087 0.894002,0 1.3797608,-0.3514 0.4857585,-0.3514 0.4857585,-1.00252 0,-0.56845 -0.3513997,-0.88884 -0.3462326,-0.32039 -1.1420496,-0.48059 l -0.63562,-0.12402 q -1.167887,-0.23255 -1.689819,-0.72864 -0.521932,-0.49609 -0.521932,-1.37976 0,-1.02319 0.718302,-1.61231 0.723471,-0.58911 1.989543,-0.58911 0.542603,0 1.1058757,0.0982 0.5632731,0.0982 1.1523844,0.29455 z"
         style="stroke-width:0.26458332"
         id="path1172"
         inkscape:connector-curvature="0" />
      <path
         d="m -6.6839159,196.55888 h 4.878255 v 0.8785 H -5.640052 v 2.2841 h 3.6741942 v 0.8785 H -5.640052 v 2.79569 h 3.9274087 v 0.8785 h -4.9712726 z"
         style="stroke-width:0.26458332"
         id="path1174"
         inkscape:connector-curvature="0" />
      <path
         d="m -1.0563524,196.55888 h 6.5267332 v 0.8785 H 2.73153 v 6.83679 H 1.6824984 v -6.83679 h -2.7388508 z"
         style="stroke-width:0.26458332"
         id="path1176"
         inkscape:connector-curvature="0" />
    </g>
    <g
       aria-label="STEPS"
       style="font-style:normal;font-variant:normal;font-weight:normal;font-stretch:normal;font-size:10.58333302px;line-height:1.25;font-family:sans-serif;-inkscape-font-specification:'sans-serif, Normal';font-variant-ligatures:normal;font-variant-caps:normal;font-variant-numeric:normal;font-feature-settings:normal;text-align:center;letter-spacing:0px;word-spacing:0px;writing-mode:lr-tb;text-anchor:middle;fill:#000000;fill-opacity:1;stroke:none;stroke-width:0.26458332"
       id="text1181"
       transform="matrix(0.19764072,0,0,0.19988307,6.096944,140.08082)">
      <path
         d="m 98.437617,198.07868 v 1.01803 q -0.594279,-0.28423 -1.121378,-0.42375 -0.5271,-0.13953 -1.018026,-0.13953 -0.852661,0 -1.317749,0.33073 -0.45992,0.33073 -0.45992,0.94051 0,0.5116 0.304891,0.77515 0.310058,0.25838 1.167887,0.41858 l 0.630453,0.12919 q 1.167887,0.22221 1.720825,0.78548 0.558105,0.55811 0.558105,1.49862 0,1.12138 -0.754476,1.70015 -0.749308,0.57878 -2.201416,0.57878 -0.54777,0 -1.167887,-0.12403 -0.61495,-0.12402 -1.276408,-0.3669 v -1.07487 q 0.63562,0.35657 1.245402,0.53744 0.609782,0.18086 1.198893,0.18086 0.894003,0 1.379761,-0.3514 0.485758,-0.3514 0.485758,-1.00252 0,-0.56844 -0.351399,-0.88883 -0.346232,-0.3204 -1.142049,-0.48059 l -0.63562,-0.12403 q -1.167888,-0.23254 -1.68982,-0.72863 -0.521932,-0.4961 -0.521932,-1.37977 0,-1.02319 0.718303,-1.6123 0.72347,-0.58911 1.989542,-0.58911 0.542603,0 1.105876,0.0982 0.563273,0.0982 1.152384,0.29456 z"
         style="font-style:normal;font-variant:normal;font-weight:normal;font-stretch:normal;font-family:Saab;-inkscape-font-specification:Saab;stroke-width:0.26458332"
         id="path1183"
         inkscape:connector-curvature="0" />
      <path
         d="m 99.460811,197.82547 h 6.526729 v 0.87849 h -2.73885 v 6.8368 h -1.04903 v -6.8368 h -2.738849 z"
         style="font-style:normal;font-variant:normal;font-weight:normal;font-stretch:normal;font-family:Saab;-inkscape-font-specification:Saab;stroke-width:0.26458332"
         id="path1185"
         inkscape:connector-curvature="0" />
      <path
         d="m 107.0004,197.82547 h 4.87826 v 0.87849 h -3.83439 v 2.2841 h 3.67419 v 0.8785 h -3.67419 v 2.7957 h 3.9274 v 0.8785 h -4.97127 z"
         style="font-style:normal;font-variant:normal;font-weight:normal;font-stretch:normal;font-family:Saab;-inkscape-font-specification:Saab;stroke-width:0.26458332"
         id="path1187"
         inkscape:connector-curvature="0" />
      <path
         d="m 114.74153,198.68329 v 2.89905 h 1.31258 q 0.72864,0 1.12655,-0.37724 0.39791,-0.37723 0.39791,-1.07487 0,-0.69246 -0.39791,-1.0697 -0.39791,-0.37724 -1.12655,-0.37724 z m -1.04386,-0.85782 h 2.35644 q 1.29708,0 1.95854,0.58911 0.66662,0.58394 0.66662,1.71565 0,1.14205 -0.66662,1.726 -0.66146,0.58394 -1.95854,0.58394 h -1.31258 v 3.10059 h -1.04386 z"
         style="font-style:normal;font-variant:normal;font-weight:normal;font-stretch:normal;font-family:Saab;-inkscape-font-specification:Saab;stroke-width:0.26458332"
         id="path1189"
         inkscape:connector-curvature="0" />
      <path
         d="m 124.70991,198.07868 v 1.01803 q -0.59427,-0.28423 -1.12137,-0.42375 -0.5271,-0.13953 -1.01803,-0.13953 -0.85266,0 -1.31775,0.33073 -0.45992,0.33073 -0.45992,0.94051 0,0.5116 0.30489,0.77515 0.31006,0.25838 1.16789,0.41858 l 0.63045,0.12919 q 1.16789,0.22221 1.72083,0.78548 0.5581,0.55811 0.5581,1.49862 0,1.12138 -0.75447,1.70015 -0.74931,0.57878 -2.20142,0.57878 -0.54777,0 -1.16789,-0.12403 -0.61495,-0.12402 -1.2764,-0.3669 v -1.07487 q 0.63562,0.35657 1.2454,0.53744 0.60978,0.18086 1.19889,0.18086 0.894,0 1.37976,-0.3514 0.48576,-0.3514 0.48576,-1.00252 0,-0.56844 -0.3514,-0.88883 -0.34623,-0.3204 -1.14205,-0.48059 l -0.63562,-0.12403 q -1.16789,-0.23254 -1.68982,-0.72863 -0.52193,-0.4961 -0.52193,-1.37977 0,-1.02319 0.7183,-1.6123 0.72347,-0.58911 1.98954,-0.58911 0.54261,0 1.10588,0.0982 0.56327,0.0982 1.15238,0.29456 z"
         style="font-style:normal;font-variant:normal;font-weight:normal;font-stretch:normal;font-family:Saab;-inkscape-font-specification:Saab;stroke-width:0.26458332"
         id="path1191"
         inkscape:connector-curvature="0" />
    </g>
    <g
       aria-label="P1 PROB P2"
       style="font-style:normal;font-variant:normal;font-weight:normal;font-stretch:normal;font-size:10.58333302px;line-height:1.25;font-family:sans-serif;-inkscape-font-specification:'sans-serif, Normal';font-variant-ligatures:normal;font-variant-caps:normal;font-variant-numeric:normal;font-feature-settings:normal;text-align:center;letter-spacing:0px;word-spacing:0px;writing-mode:lr-tb;text-anchor:middle;fill:#e6e6e6;fill-opacity:1;stroke:none;stroke-width:0.26458332"
       id="text4899"
       transform="matrix(0.29788368,0,0,0.33219198,-0.43595154,127.84353)">
      <path
         d="m 33.188816,204.27106 v 2.89905 h 1.312581 q 0.728638,0 1.126546,-0.37724 0.397909,-0.37724 0.397909,-1.07487 0,-0.69246 -0.397909,-1.0697 -0.397908,-0.37724 -1.126546,-0.37724 z m -1.043864,-0.85783 h 2.356445 q 1.297078,0 1.958537,0.58911 0.666626,0.58395 0.666626,1.71566 0,1.14205 -0.666626,1.726 -0.661459,0.58394 -1.958537,0.58394 h -1.312581 v 3.10058 h -1.043864 z"
         style="font-style:normal;font-variant:normal;font-weight:normal;font-stretch:normal;font-family:Saab;-inkscape-font-specification:Saab;fill:#e6e6e6;fill-opacity:1;stroke-width:0.26458332"
         id="path4901"
         inkscape:connector-curvature="0" />
      <path
         d="m 40.309828,211.33523 v -6.27352 l -1.209228,0.73381 v -0.5271 l 1.255737,-0.77515 h 0.692464 v 6.84196 z"
         style="font-style:normal;font-variant:normal;font-weight:normal;font-stretch:normal;font-family:Saab;-inkscape-font-specification:Saab;fill:#e6e6e6;fill-opacity:1;stroke-width:0.26458332"
         id="path4903"
         inkscape:connector-curvature="0" />
      <path
         d="m 50.366062,204.27106 v 2.89905 h 1.312581 q 0.728638,0 1.126546,-0.37724 0.397909,-0.37724 0.397909,-1.07487 0,-0.69246 -0.397909,-1.0697 -0.397908,-0.37724 -1.126546,-0.37724 z m -1.043864,-0.85783 h 2.356445 q 1.297079,0 1.958537,0.58911 0.666626,0.58395 0.666626,1.71566 0,1.14205 -0.666626,1.726 -0.661458,0.58394 -1.958537,0.58394 h -1.312581 v 3.10058 h -1.043864 z"
         style="font-style:normal;font-variant:normal;font-weight:normal;font-stretch:normal;font-family:Saab;-inkscape-font-specification:Saab;fill:#e6e6e6;fill-opacity:1;stroke-width:0.26458332"
         id="path4905"
         inkscape:connector-curvature="0" />
      <path
         d="m 59.368096,207.51117 q 0.335897,0.11369 0.651123,0.48576 0.320394,0.37207 0.640788,1.0232 l 1.059367,2.10839 h -1.121379 l -0.98702,-1.9792 q -0.382405,-0.77515 -0.74414,-1.02836 -0.356568,-0.25322 -0.976685,-0.25322 h -1.136881 v 3.26078 h -1.043864 v -7.71529 h 2.356445 q 1.322917,0 1.97404,0.55294 0.651123,0.55294 0.651123,1.66915 0,0.72864 -0.341065,1.20923 -0.335896,0.48059 -0.981852,0.66662 z m -2.614827,-3.24011 v 2.73885 h 1.312581 q 0.754476,0 1.136882,-0.34623 0.387573,-0.3514 0.387573,-1.02836 0,-0.67696 -0.387573,-1.01803 -0.382406,-0.34623 -1.136882,-0.34623 z"
         style="font-style:normal;font-variant:normal;font-weight:normal;font-stretch:normal;font-family:Saab;-inkscape-font-specification:Saab;fill:#e6e6e6;fill-opacity:1;stroke-width:0.26458332"
         id="path4907"
         inkscape:connector-curvature="0" />
      <path
         d="m 66.199719,204.1212 q -1.136881,0 -1.808675,0.84749 -0.666626,0.8475 -0.666626,2.30994 0,1.45728 0.666626,2.30477 0.671794,0.84749 1.808675,0.84749 1.136882,0 1.79834,-0.84749 0.666626,-0.84749 0.666626,-2.30477 0,-1.46244 -0.666626,-2.30994 -0.661458,-0.84749 -1.79834,-0.84749 z m 0,-0.84749 q 1.62264,0 2.594157,1.09037 0.971517,1.08521 0.971517,2.91455 0,1.82418 -0.971517,2.91455 -0.971517,1.08521 -2.594157,1.08521 -1.627807,0 -2.604492,-1.08521 -0.971517,-1.0852 -0.971517,-2.91455 0,-1.82934 0.971517,-2.91455 0.976685,-1.09037 2.604492,-1.09037 z"
         style="font-style:normal;font-variant:normal;font-weight:normal;font-stretch:normal;font-family:Saab;-inkscape-font-specification:Saab;fill:#e6e6e6;fill-opacity:1;stroke-width:0.26458332"
         id="path4909"
         inkscape:connector-curvature="0" />
      <path
         d="m 72.442234,207.444 v 2.8267 h 1.674316 q 0.842326,0 1.245402,-0.34624 0.408244,-0.3514 0.408244,-1.0697 0,-0.72347 -0.408244,-1.06453 Q 74.958876,207.444 74.11655,207.444 Z m 0,-3.17294 v 2.32544 h 1.545125 q 0.764811,0 1.136881,-0.28422 0.377238,-0.28939 0.377238,-0.8785 0,-0.58394 -0.377238,-0.87333 -0.37207,-0.28939 -1.136881,-0.28939 z m -1.043864,-0.85783 h 2.666504 q 1.193725,0 1.83968,0.4961 0.645956,0.49609 0.645956,1.41076 0,0.70797 -0.330729,1.12655 -0.330729,0.41858 -0.971517,0.52193 0.769979,0.16537 1.193725,0.69247 0.428915,0.52193 0.428915,1.30741 0,1.03353 -0.7028,1.5968 -0.702799,0.56327 -1.999878,0.56327 H 71.39837 Z"
         style="font-style:normal;font-variant:normal;font-weight:normal;font-stretch:normal;font-family:Saab;-inkscape-font-specification:Saab;fill:#e6e6e6;fill-opacity:1;stroke-width:0.26458332"
         id="path4911"
         inkscape:connector-curvature="0" />
      <path
         d="m 83.066906,204.27106 v 2.89905 h 1.312581 q 0.728638,0 1.126546,-0.37724 0.397909,-0.37724 0.397909,-1.07487 0,-0.69246 -0.397909,-1.0697 -0.397908,-0.37724 -1.126546,-0.37724 z m -1.043864,-0.85783 h 2.356445 q 1.297078,0 1.958537,0.58911 0.666626,0.58395 0.666626,1.71566 0,1.14205 -0.666626,1.726 -0.661459,0.58394 -1.958537,0.58394 h -1.312581 v 3.10058 h -1.043864 z"
         style="font-style:normal;font-variant:normal;font-weight:normal;font-stretch:normal;font-family:Saab;-inkscape-font-specification:Saab;fill:#e6e6e6;fill-opacity:1;stroke-width:0.26458332"
         id="path4913"
         inkscape:connector-curvature="0" />
      <path
         d="m 88.270722,210.67894 q 0.72347,-0.79582 1.157552,-1.31258 0.43925,-0.52193 0.651123,-0.77515 0.191203,-0.23254 0.366903,-0.49092 0.1757,-0.26355 0.310059,-0.54261 0.134358,-0.27905 0.211873,-0.5736 0.08268,-0.29456 0.08268,-0.59428 0,-0.3514 -0.10852,-0.60462 -0.108521,-0.25321 -0.294556,-0.41341 -0.186035,-0.16536 -0.434082,-0.24288 -0.248047,-0.0775 -0.527099,-0.0724 -0.279053,0 -0.573609,0.0775 -0.294555,0.0775 -0.573608,0.22221 l -0.1757,-0.43408 q 0.335897,-0.21705 0.72347,-0.3204 0.387573,-0.10335 0.775146,-0.093 0.387574,0.005 0.744141,0.12403 0.361735,0.11885 0.63562,0.3514 0.279053,0.23254 0.444417,0.57877 0.165365,0.34624 0.165365,0.80099 0,0.44442 -0.103353,0.80615 -0.09819,0.35657 -0.28422,0.67696 -0.186035,0.3204 -0.444418,0.62012 -0.258382,0.29455 -0.573608,0.60978 -0.315226,0.31523 -0.676961,0.67179 -0.361735,0.3514 -0.754476,0.78549 h 3.105753 v 0.80098 H 88.27072 Z"
         style="font-style:normal;font-variant:normal;font-weight:normal;font-stretch:normal;font-family:Saab;-inkscape-font-specification:Saab;fill:#e6e6e6;fill-opacity:1;stroke-width:0.26458332"
         id="path4915"
         inkscape:connector-curvature="0" />
    </g>
    <g
       aria-label="OCT  CV"
       style="font-style:normal;font-variant:normal;font-weight:normal;font-stretch:normal;font-size:10.58333302px;line-height:1.25;font-family:sans-serif;-inkscape-font-specification:'sans-serif, Normal';font-variant-ligatures:normal;font-variant-caps:normal;font-variant-numeric:normal;font-feature-settings:normal;text-align:center;letter-spacing:0px;word-spacing:0px;writing-mode:lr-tb;text-anchor:middle;fill:#e6e6e6;fill-opacity:1;stroke:none;stroke-width:0.26458332"
       id="text4920"
       transform="matrix(0.290473,0,0,0.32386955,47.09446,126.29105)">
      <path
         d="m 7.6237697,214.13823 q -1.1368815,0 -1.8086751,0.84749 -0.666626,0.8475 -0.666626,2.30994 0,1.45727 0.666626,2.30477 0.6717936,0.84749 1.8086751,0.84749 1.1368814,0 1.7983397,-0.84749 0.6666256,-0.8475 0.6666256,-2.30477 0,-1.46244 -0.6666256,-2.30994 -0.6614583,-0.84749 -1.7983397,-0.84749 z m 0,-0.84749 q 1.6226399,0 2.5941563,1.09037 0.971517,1.0852 0.971517,2.91455 0,1.82418 -0.971517,2.91455 -0.9715164,1.08521 -2.5941563,1.08521 -1.6278076,0 -2.6044922,-1.08521 -0.9715169,-1.0852 -0.9715169,-2.91455 0,-1.82935 0.9715169,-2.91455 0.9766846,-1.09037 2.6044922,-1.09037 z"
         style="font-style:normal;font-variant:normal;font-weight:normal;font-stretch:normal;font-family:Saab;-inkscape-font-specification:Saab;fill:#e6e6e6;fill-opacity:1;stroke-width:0.26458332"
         id="path4922"
         inkscape:connector-curvature="0" />
      <path
         d="m 18.599843,214.02454 v 1.10071 q -0.527099,-0.49093 -1.126546,-0.73381 -0.594279,-0.24288 -1.266073,-0.24288 -1.322916,0 -2.025716,0.81132 -0.702799,0.80616 -0.702799,2.33578 0,1.52445 0.702799,2.33577 0.7028,0.80616 2.025716,0.80616 0.671794,0 1.266073,-0.24288 0.599447,-0.24288 1.126546,-0.73381 v 1.09037 q -0.54777,0.37207 -1.16272,0.55811 -0.609781,0.18604 -1.29191,0.18604 -1.751831,0 -2.759522,-1.06971 -1.00769,-1.07487 -1.00769,-2.93005 0,-1.86035 1.00769,-2.93005 1.007691,-1.07487 2.759522,-1.07487 0.692464,0 1.302246,0.18603 0.614949,0.18087 1.152384,0.54777 z"
         style="font-style:normal;font-variant:normal;font-weight:normal;font-stretch:normal;font-family:Saab;-inkscape-font-specification:Saab;fill:#e6e6e6;fill-opacity:1;stroke-width:0.26458332"
         id="path4924"
         inkscape:connector-curvature="0" />
      <path
         d="m 19.152781,213.43026 h 6.526733 v 0.8785 h -2.738851 v 6.83679 h -1.049032 v -6.83679 h -2.73885 z"
         style="font-style:normal;font-variant:normal;font-weight:normal;font-stretch:normal;font-family:Saab;-inkscape-font-specification:Saab;fill:#e6e6e6;fill-opacity:1;stroke-width:0.26458332"
         id="path4926"
         inkscape:connector-curvature="0" />
      <path
         d="m 39.208404,214.02454 v 1.10071 q -0.5271,-0.49093 -1.126546,-0.73381 -0.594279,-0.24288 -1.266073,-0.24288 -1.322917,0 -2.025716,0.81132 -0.7028,0.80616 -0.7028,2.33578 0,1.52445 0.7028,2.33577 0.702799,0.80616 2.025716,0.80616 0.671794,0 1.266073,-0.24288 0.599446,-0.24288 1.126546,-0.73381 v 1.09037 q -0.54777,0.37207 -1.16272,0.55811 -0.609782,0.18604 -1.291911,0.18604 -1.751831,0 -2.759521,-1.06971 -1.007691,-1.07487 -1.007691,-2.93005 0,-1.86035 1.007691,-2.93005 1.00769,-1.07487 2.759521,-1.07487 0.692464,0 1.302246,0.18603 0.61495,0.18087 1.152385,0.54777 z"
         style="font-style:normal;font-variant:normal;font-weight:normal;font-stretch:normal;font-family:Saab;-inkscape-font-specification:Saab;fill:#e6e6e6;fill-opacity:1;stroke-width:0.26458332"
         id="path4928"
         inkscape:connector-curvature="0" />
      <path
         d="m 42.820588,221.14555 -2.945557,-7.71529 h 1.090373 l 2.444295,6.49573 2.449463,-6.49573 h 1.085205 l -2.940389,7.71529 z"
         style="font-style:normal;font-variant:normal;font-weight:normal;font-stretch:normal;font-family:Saab;-inkscape-font-specification:Saab;fill:#e6e6e6;fill-opacity:1;stroke-width:0.26458332"
         id="path4930"
         inkscape:connector-curvature="0" />
    </g>
    <g
       aria-label="RESET  RUN"
       style="font-style:normal;font-variant:normal;font-weight:normal;font-stretch:normal;font-size:10.58333302px;line-height:1.25;font-family:Saab;-inkscape-font-specification:Saab;font-variant-ligatures:normal;font-variant-caps:normal;font-variant-numeric:normal;font-feature-settings:normal;text-align:center;letter-spacing:0px;word-spacing:0px;writing-mode:lr-tb;text-anchor:middle;fill:#000000;fill-opacity:1;stroke:none;stroke-width:0.26458332"
       id="text4935"
       transform="matrix(0.25330009,0,0,0.23736114,62.68508,129.81991)">
      <path
         d="m -64.103131,213.96038 q 0.335897,0.11369 0.651123,0.48576 0.320394,0.37207 0.640788,1.02319 l 1.059367,2.1084 h -1.121379 l -0.98702,-1.97921 q -0.382405,-0.77515 -0.74414,-1.02836 -0.356568,-0.25321 -0.976685,-0.25321 h -1.136881 v 3.26078 h -1.043864 v -7.71529 h 2.356445 q 1.322917,0 1.97404,0.55293 0.651123,0.55294 0.651123,1.66915 0,0.72864 -0.341065,1.20923 -0.335896,0.48059 -0.981852,0.66663 z m -2.614827,-3.24011 v 2.73885 h 1.312581 q 0.754476,0 1.136882,-0.34624 0.387573,-0.3514 0.387573,-1.02836 0,-0.67696 -0.387573,-1.01802 -0.382406,-0.34623 -1.136882,-0.34623 z"
         style="fill:#000000;fill-opacity:1;stroke-width:0.26458332"
         id="path4937"
         inkscape:connector-curvature="0" />
      <path
         d="m -60.403098,209.86244 h 4.878255 v 0.8785 h -3.834392 v 2.28409 h 3.674195 v 0.8785 h -3.674195 v 2.7957 h 3.927409 v 0.8785 h -4.971272 z"
         style="fill:#000000;fill-opacity:1;stroke-width:0.26458332"
         id="path4939"
         inkscape:connector-curvature="0" />
      <path
         d="m -49.080792,210.11565 v 1.01803 q -0.594279,-0.28422 -1.121379,-0.42375 -0.527099,-0.13953 -1.018026,-0.13953 -0.852661,0 -1.317748,0.33073 -0.459921,0.33073 -0.459921,0.94051 0,0.5116 0.304891,0.77515 0.310059,0.25838 1.167888,0.41858 l 0.630452,0.12919 q 1.167887,0.22221 1.720825,0.78548 0.558106,0.55811 0.558106,1.49862 0,1.12138 -0.754476,1.70015 -0.749309,0.57878 -2.201416,0.57878 -0.54777,0 -1.167888,-0.12402 -0.614949,-0.12403 -1.276407,-0.36691 v -1.07487 q 0.63562,0.35657 1.245402,0.53744 0.609781,0.18087 1.198893,0.18087 0.894002,0 1.37976,-0.3514 0.485759,-0.3514 0.485759,-1.00253 0,-0.56844 -0.3514,-0.88883 -0.346232,-0.32039 -1.142049,-0.48059 l -0.63562,-0.12402 q -1.167887,-0.23255 -1.689819,-0.72864 -0.521932,-0.4961 -0.521932,-1.37976 0,-1.0232 0.718302,-1.61231 0.72347,-0.58911 1.989543,-0.58911 0.542602,0 1.105875,0.0982 0.563273,0.0982 1.152385,0.29455 z"
         style="fill:#000000;fill-opacity:1;stroke-width:0.26458332"
         id="path4941"
         inkscape:connector-curvature="0" />
      <path
         d="m -46.987896,209.86244 h 4.878255 v 0.8785 h -3.834391 v 2.28409 h 3.674194 v 0.8785 h -3.674194 v 2.7957 h 3.927408 v 0.8785 h -4.971272 z"
         style="fill:#000000;fill-opacity:1;stroke-width:0.26458332"
         id="path4943"
         inkscape:connector-curvature="0" />
      <path
         d="m -41.360333,209.86244 h 6.526733 v 0.8785 h -2.73885 v 6.83679 h -1.049032 v -6.83679 h -2.738851 z"
         style="fill:#000000;fill-opacity:1;stroke-width:0.26458332"
         id="path4945"
         inkscape:connector-curvature="0" />
      <path
         d="m -23.423443,213.96038 q 0.335897,0.11369 0.651123,0.48576 0.320394,0.37207 0.640787,1.02319 l 1.059367,2.1084 h -1.121378 l -0.98702,-1.97921 q -0.382406,-0.77515 -0.744141,-1.02836 -0.356567,-0.25321 -0.976684,-0.25321 h -1.136882 v 3.26078 h -1.043864 v -7.71529 h 2.356446 q 1.322916,0 1.974039,0.55293 0.651123,0.55294 0.651123,1.66915 0,0.72864 -0.341064,1.20923 -0.335897,0.48059 -0.981852,0.66663 z m -2.614828,-3.24011 v 2.73885 h 1.312582 q 0.754476,0 1.136881,-0.34624 0.387573,-0.3514 0.387573,-1.02836 0,-0.67696 -0.387573,-1.01802 -0.382405,-0.34623 -1.136881,-0.34623 z"
         style="fill:#000000;fill-opacity:1;stroke-width:0.26458332"
         id="path4947"
         inkscape:connector-curvature="0" />
      <path
         d="m -19.842268,209.86244 h 1.049032 v 4.68705 q 0,1.24023 0.449585,1.788 0.449585,0.54261 1.457275,0.54261 1.002523,0 1.452108,-0.54261 0.449585,-0.54777 0.449585,-1.788 v -4.68705 h 1.049031 v 4.81624 q 0,1.50895 -0.749308,2.27893 -0.744141,0.76998 -2.201416,0.76998 -1.462443,0 -2.211751,-0.76998 -0.744141,-0.76998 -0.744141,-2.27893 z"
         style="fill:#000000;fill-opacity:1;stroke-width:0.26458332"
         id="path4949"
         inkscape:connector-curvature="0" />
      <path
         d="m -11.971947,209.86244 h 1.405599 l 3.4209796,6.45438 v -6.45438 h 1.012858 v 7.71529 h -1.4055989 l -3.4209797,-6.45439 v 6.45439 h -1.012858 z"
         style="fill:#000000;fill-opacity:1;stroke-width:0.26458332"
         id="path4951"
         inkscape:connector-curvature="0" />
    </g>
    <path
       inkscape:connector-curvature="0"
       id="path36429-5-3"
       d="m 19.49544,277.52743 c 0,-0.54984 -0.763031,-1.00045 -1.694114,-1.00045 H 4.7941592 C 3.8630736,276.52698 3.1,276.97759 3.1,277.52743 v 12.1721 c 0,0.54983 0.7630736,1.00045 1.6941592,1.00045 H 17.801326 c 0.931083,0 1.694114,-0.45062 1.694114,-1.00045 z m 0,0"
       style="display:inline;fill:#cccccc;fill-opacity:1;fill-rule:nonzero;stroke:none;stroke-width:0.45906731"
       inkscape:export-filename="/home/vortico/pics/tmp/LFOs.png"
       inkscape:export-xdpi="150.22649"
       inkscape:export-ydpi="150.22649" />
    <g
       aria-label="OCTAVE"
       style="font-style:normal;font-variant:normal;font-weight:normal;font-stretch:normal;font-size:10.58333302px;line-height:1.25;font-family:Saab;-inkscape-font-specification:Saab;font-variant-ligatures:normal;font-variant-caps:normal;font-variant-numeric:normal;font-feature-settings:normal;text-align:center;letter-spacing:0px;word-spacing:0px;writing-mode:lr-tb;text-anchor:middle;fill:#000000;fill-opacity:1;stroke:none;stroke-width:0.26458332"
       id="text961-0"
       transform="matrix(0.18074306,0,0,0.20488015,17.925419,232.94852)">
      <path
         d="m -53.800334,215.53136 q -1.136882,0 -1.808676,0.84749 -0.666625,0.84749 -0.666625,2.30994 0,1.45727 0.666625,2.30477 0.671794,0.84749 1.808676,0.84749 1.136881,0 1.798339,-0.84749 0.666626,-0.8475 0.666626,-2.30477 0,-1.46245 -0.666626,-2.30994 -0.661458,-0.84749 -1.798339,-0.84749 z m 0,-0.8475 q 1.622639,0 2.594156,1.09038 0.971517,1.0852 0.971517,2.91455 0,1.82417 -0.971517,2.91455 -0.971517,1.0852 -2.594156,1.0852 -1.627808,0 -2.604493,-1.0852 -0.971516,-1.08521 -0.971516,-2.91455 0,-1.82935 0.971516,-2.91455 0.976685,-1.09038 2.604493,-1.09038 z"
         style="stroke-width:0.26458332"
         id="path963-4"
         inkscape:connector-curvature="0" />
      <path
         d="m -42.824261,215.41767 v 1.10071 q -0.5271,-0.49093 -1.126546,-0.73381 -0.594279,-0.24288 -1.266073,-0.24288 -1.322916,0 -2.025716,0.81132 -0.702799,0.80615 -0.702799,2.33578 0,1.52445 0.702799,2.33577 0.7028,0.80615 2.025716,0.80615 0.671794,0 1.266073,-0.24288 0.599446,-0.24287 1.126546,-0.7338 v 1.09037 q -0.54777,0.37207 -1.16272,0.55811 -0.609781,0.18603 -1.29191,0.18603 -1.751831,0 -2.759522,-1.0697 -1.00769,-1.07487 -1.00769,-2.93005 0,-1.86035 1.00769,-2.93006 1.007691,-1.07487 2.759522,-1.07487 0.692464,0 1.302246,0.18604 0.614949,0.18087 1.152384,0.54777 z"
         style="stroke-width:0.26458332"
         id="path965-4"
         inkscape:connector-curvature="0" />
      <path
         d="m -42.271324,214.82339 h 6.526734 v 0.8785 h -2.738851 v 6.83679 h -1.049032 v -6.83679 h -2.738851 z"
         style="stroke-width:0.26458332"
         id="path967-4"
         inkscape:connector-curvature="0" />
      <path
         d="m -32.979901,215.85175 -1.415934,3.83956 h 2.837036 z m -0.589111,-1.02836 h 1.18339 l 2.940389,7.71529 h -1.085205 l -0.7028,-1.97921 h -3.477824 l -0.702799,1.97921 h -1.100708 z"
         style="stroke-width:0.26458332"
         id="path969-4"
         inkscape:connector-curvature="0" />
      <path
         d="m -27.01644,222.53868 -2.945557,-7.71529 h 1.090373 l 2.444295,6.49573 2.449463,-6.49573 h 1.085205 l -2.940389,7.71529 z"
         style="stroke-width:0.26458332"
         id="path971-7"
         inkscape:connector-curvature="0" />
      <path
         d="m -21.771282,214.82339 h 4.878255 v 0.8785 h -3.834391 v 2.2841 h 3.674195 v 0.8785 h -3.674195 v 2.79569 h 3.927409 v 0.8785 h -4.971273 z"
         style="stroke-width:0.26458332"
         id="path973-6"
         inkscape:connector-curvature="0" />
    </g>
    <g
       aria-label="PAN"
       style="font-style:normal;font-variant:normal;font-weight:normal;font-stretch:normal;font-size:10.58333302px;line-height:1.25;font-family:Saab;-inkscape-font-specification:Saab;font-variant-ligatures:normal;font-variant-caps:normal;font-variant-numeric:normal;font-feature-settings:normal;text-align:center;letter-spacing:0px;word-spacing:0px;writing-mode:lr-tb;text-anchor:middle;fill:#e6e6e6;fill-opacity:1;stroke:none;stroke-width:0.26458332"
       id="text969"
       transform="matrix(0.40046861,0,0,0.32882016,45.964746,126.48886)">
      <path
         d="m -34.805424,210.76348 v 2.89905 h 1.312581 q 0.728638,0 1.126546,-0.37724 0.397909,-0.37724 0.397909,-1.07487 0,-0.69247 -0.397909,-1.0697 -0.397908,-0.37724 -1.126546,-0.37724 z m -1.043864,-0.85783 h 2.356445 q 1.297079,0 1.958537,0.58911 0.666626,0.58395 0.666626,1.71566 0,1.14205 -0.666626,1.72599 -0.661458,0.58395 -1.958537,0.58395 h -1.312581 v 3.10058 h -1.043864 z"
         style="fill:#e6e6e6;fill-opacity:1;stroke-width:0.26458332"
         id="path971"
         inkscape:connector-curvature="0" />
      <path
         d="m -27.565556,210.93401 -1.415934,3.83956 h 2.837036 z m -0.589111,-1.02836 h 1.18339 l 2.940389,7.71529 h -1.085205 l -0.7028,-1.97921 h -3.477823 l -0.7028,1.97921 h -1.100708 z"
         style="fill:#e6e6e6;fill-opacity:1;stroke-width:0.26458332"
         id="path973"
         inkscape:connector-curvature="0" />
      <path
         d="m -22.90951,209.90565 h 1.405599 l 3.42098,6.45439 v -6.45439 h 1.012858 v 7.71529 h -1.405599 l -3.42098,-6.45439 v 6.45439 h -1.012858 z"
         style="fill:#e6e6e6;fill-opacity:1;stroke-width:0.26458332"
         id="path975"
         inkscape:connector-curvature="0" />
    </g>
    <g
       aria-label="UNI"
       style="font-style:normal;font-variant:normal;font-weight:normal;font-stretch:normal;font-size:10.58333302px;line-height:1.25;font-family:Saab;-inkscape-font-specification:Saab;font-variant-ligatures:normal;font-variant-caps:normal;font-variant-numeric:normal;font-feature-settings:normal;text-align:center;letter-spacing:0px;word-spacing:0px;writing-mode:lr-tb;text-anchor:middle;fill:#000000;fill-opacity:1;stroke:none;stroke-width:0.26458332"
       id="text1014"
       transform="matrix(0.13638318,0,0,0.17800042,23.758047,227.5017)">
      <path
         d="m 10.641211,282.50474 h 1.049032 v 4.68705 q 0,1.24024 0.449585,1.78801 0.449585,0.5426 1.457275,0.5426 1.002523,0 1.452108,-0.5426 0.449585,-0.54777 0.449585,-1.78801 v -4.68705 h 1.049031 v 4.81624 q 0,1.50896 -0.749308,2.27893 -0.74414,0.76998 -2.201416,0.76998 -1.462443,0 -2.211751,-0.76998 -0.744141,-0.76997 -0.744141,-2.27893 z"
         style="stroke-width:0.26458332"
         id="path1016"
         inkscape:connector-curvature="0" />
      <path
         d="m 18.511532,282.50474 h 1.405599 l 3.42098,6.45439 v -6.45439 h 1.012858 v 7.71529 H 22.94537 l -3.42098,-6.45438 v 6.45438 h -1.012858 z"
         style="stroke-width:0.26458332"
         id="path1018"
         inkscape:connector-curvature="0" />
      <path
         d="m 26.428361,282.50474 h 1.043864 v 7.71529 h -1.043864 z"
         style="stroke-width:0.26458332"
         id="path1020"
         inkscape:connector-curvature="0" />
    </g>
    <g
       aria-label="BI"
       style="font-style:normal;font-variant:normal;font-weight:normal;font-stretch:normal;font-size:10.58333302px;line-height:1.25;font-family:Saab;-inkscape-font-specification:Saab;font-variant-ligatures:normal;font-variant-caps:normal;font-variant-numeric:normal;font-feature-settings:normal;text-align:center;letter-spacing:0px;word-spacing:0px;writing-mode:lr-tb;text-anchor:middle;fill:#000000;fill-opacity:1;stroke:none;stroke-width:0.26458332"
       id="text1025"
       transform="matrix(0.16869025,0,0,0.1960861,24.527912,232.08669)">
      <path
         d="m 7.4941162,290.17353 v 2.8267 h 1.6743164 q 0.8423254,0 1.2454024,-0.34623 0.408243,-0.3514 0.408243,-1.0697 0,-0.72347 -0.408243,-1.06453 -0.403077,-0.34624 -1.2454024,-0.34624 z m 0,-3.17293 v 2.32544 h 1.5451253 q 0.7648112,0 1.1368815,-0.28422 0.377238,-0.28939 0.377238,-0.8785 0,-0.58394 -0.377238,-0.87333 -0.3720703,-0.28939 -1.1368815,-0.28939 z m -1.0438639,-0.85783 h 2.6665039 q 1.1937258,0 1.8396808,0.4961 0.645955,0.49609 0.645955,1.41076 0,0.70797 -0.330729,1.12655 -0.330729,0.41858 -0.971517,0.52193 0.769979,0.16536 1.193726,0.69246 0.428914,0.52194 0.428914,1.30742 0,1.03353 -0.702799,1.5968 -0.7028,0.56327 -1.999878,0.56327 H 6.4502523 Z"
         style="stroke-width:0.26458332"
         id="path1027"
         inkscape:connector-curvature="0" />
      <path
         d="m 13.705623,286.14277 h 1.043864 v 7.71529 h -1.043864 z"
         style="stroke-width:0.26458332"
         id="path1029"
         inkscape:connector-curvature="0" />
    </g>
    <g
       aria-label="RATCHETS"
       style="font-style:normal;font-variant:normal;font-weight:normal;font-stretch:normal;font-size:10.58333302px;line-height:1.25;font-family:Saab;-inkscape-font-specification:Saab;font-variant-ligatures:normal;font-variant-caps:normal;font-variant-numeric:normal;font-feature-settings:normal;text-align:center;letter-spacing:0px;word-spacing:0px;writing-mode:lr-tb;text-anchor:middle;display:inline;fill:#000000;fill-opacity:1;stroke:none;stroke-width:0.26458332"
       id="text1076"
       transform="matrix(0.68262031,0,0,0.57396671,121.1385,186.1871)">
      <path
         d="m -148.23941,-24.975377 q 0.3359,0.113688 0.65112,0.485759 0.3204,0.37207 0.64079,1.023193 l 1.05937,2.108398 h -1.12138 l -0.98702,-1.979207 q -0.38241,-0.775146 -0.74414,-1.028361 -0.35657,-0.253214 -0.97669,-0.253214 h -1.13688 v 3.260782 h -1.04386 v -7.715291 h 2.35644 q 1.32292,0 1.97404,0.552938 0.65113,0.552938 0.65113,1.669149 0,0.728638 -0.34107,1.209228 -0.3359,0.480591 -0.98185,0.666626 z m -2.61483,-3.240112 v 2.738851 h 1.31258 q 0.75448,0 1.13688,-0.346232 0.38758,-0.3514 0.38758,-1.028361 0,-0.676961 -0.38758,-1.018026 -0.3824,-0.346232 -1.13688,-0.346232 z"
         style="stroke-width:0.26458332"
         id="path1082"
         inkscape:connector-curvature="0" />
      <path
         d="m -142.56362,-26.930469 -1.17994,3.199633 h 2.3642 z m -0.49092,-0.856967 h 0.98616 l 2.45032,6.429409 h -0.90434 l -0.58566,-1.649339 h -2.89819 l -0.58567,1.649339 h -0.91725 z"
         style="font-size:8.81944466px"
         id="path1084"
         inkscape:connector-curvature="0" />
      <path
         d="m -140.26401,-27.787436 h 5.43894 v 0.732083 h -2.28238 v 5.697326 h -0.87419 v -5.697326 h -2.28237 z"
         style="font-size:8.81944466px"
         id="path1086"
         inkscape:connector-curvature="0" />
      <path
         d="m -129.68326,-27.292204 v 0.917257 q -0.43925,-0.409105 -0.93879,-0.611504 -0.49524,-0.2024 -1.05506,-0.2024 -1.10243,0 -1.6881,0.6761 -0.58567,0.671794 -0.58567,1.946479 0,1.270379 0.58567,1.946479 0.58567,0.671794 1.6881,0.671794 0.55982,0 1.05506,-0.202399 0.49954,-0.2024 0.93879,-0.611505 v 0.908644 q -0.45648,0.310059 -0.96894,0.465088 -0.50815,0.155029 -1.07659,0.155029 -1.45986,0 -2.2996,-0.891418 -0.83974,-0.895725 -0.83974,-2.441712 0,-1.550293 0.83974,-2.441711 0.83974,-0.895725 2.2996,-0.895725 0.57705,0 1.08521,0.155029 0.51245,0.150723 0.96032,0.456475 z"
         style="font-size:8.81944466px"
         id="path1088"
         inkscape:connector-curvature="0" />
      <path
         d="m -128.33107,-27.787436 h 0.86989 v 2.635498 h 3.16088 v -2.635498 h 0.86988 v 6.429409 h -0.86988 v -3.061828 h -3.16088 v 3.061828 h -0.86989 z"
         style="font-size:8.81944466px"
         id="path1090"
         inkscape:connector-curvature="0" />
      <path
         d="m -121.69926,-27.787436 h 4.06522 v 0.732083 h -3.19533 v 1.903415 h 3.06183 v 0.732083 h -3.06183 v 2.329746 h 3.27284 v 0.732082 h -4.14273 z"
         style="font-size:8.81944466px"
         id="path1092"
         inkscape:connector-curvature="0" />
      <path
         d="m -117.00962,-27.787436 h 5.43895 v 0.732083 h -2.28238 v 5.697326 h -0.87419 v -5.697326 h -2.28238 z"
         style="font-size:8.81944466px"
         id="path1094"
         inkscape:connector-curvature="0" />
      <path
         d="m -106.87243,-27.576424 v 0.848355 q -0.49523,-0.236851 -0.93448,-0.353123 -0.43925,-0.116271 -0.84836,-0.116271 -0.71055,0 -1.09812,0.275607 -0.38327,0.275608 -0.38327,0.783759 0,0.426331 0.25408,0.645956 0.25838,0.215318 0.97324,0.348816 l 0.52538,0.107659 q 0.97324,0.185174 1.43402,0.654568 0.46508,0.465088 0.46508,1.248847 0,0.934482 -0.62872,1.416796 -0.62443,0.482313 -1.83452,0.482313 -0.45647,0 -0.97324,-0.103353 -0.51246,-0.103353 -1.06367,-0.305752 v -0.895725 q 0.52968,0.29714 1.03783,0.447863 0.50816,0.150723 0.99908,0.150723 0.745,0 1.1498,-0.292834 0.4048,-0.292833 0.4048,-0.835435 0,-0.473701 -0.29283,-0.740696 -0.28853,-0.266995 -0.95171,-0.400492 l -0.52968,-0.103353 q -0.97324,-0.193787 -1.40819,-0.607198 -0.43494,-0.413412 -0.43494,-1.149801 0,-0.852661 0.59859,-1.343587 0.60289,-0.490926 1.65795,-0.490926 0.45217,0 0.92156,0.08182 0.4694,0.08182 0.96032,0.245464 z"
         style="font-size:8.81944466px"
         id="path1096"
         inkscape:connector-curvature="0" />
    </g>
    <g
       id="g1201"
       transform="matrix(1.4981149,0,0,0.97794295,-11.530457,6.5368742)">
      <path
         d="m 29.471978,294.77161 q 0,0.33413 -0.05551,0.62149 -0.05047,0.28736 -0.18675,0.50788 -0.131231,0.21385 -0.358359,0.34082 -0.222082,0.12029 -0.560252,0.12029 -0.171607,0 -0.317979,-0.0401 -0.141324,-0.0334 -0.257412,-0.0869 -0.116093,-0.0601 -0.201893,-0.12029 -0.08581,-0.0668 -0.136277,-0.12697 l 0.191797,-0.51457 q 0.105987,0.10024 0.272555,0.21385 0.171609,0.10691 0.423973,0.10691 0.363406,0 0.529967,-0.24057 0.166562,-0.24726 0.166562,-0.84202 v -3.08073 h 0.489588 z"
         style="font-style:normal;font-variant:normal;font-weight:normal;font-stretch:normal;font-size:4.7239871px;line-height:1.25;font-family:Ubuntu;-inkscape-font-specification:'Ubuntu, Normal';font-variant-ligatures:normal;font-variant-caps:normal;font-variant-numeric:normal;font-feature-settings:normal;text-align:start;letter-spacing:0px;word-spacing:0px;writing-mode:lr-tb;text-anchor:start;fill:#000000;fill-opacity:1;stroke:none;stroke-width:0.14519297"
         id="path5290"
         inkscape:connector-curvature="0" />
      <path
         d="m 32.17807,295.70022 v 0.56134 h -2.104725 v -4.63111 h 0.489588 v 4.06977 z"
         style="font-style:normal;font-variant:normal;font-weight:normal;font-stretch:normal;font-size:4.7239871px;line-height:1.25;font-family:Ubuntu;-inkscape-font-specification:'Ubuntu, Normal';font-variant-ligatures:normal;font-variant-caps:normal;font-variant-numeric:normal;font-feature-settings:normal;text-align:start;letter-spacing:0px;word-spacing:0px;writing-mode:lr-tb;text-anchor:start;fill:#000000;fill-opacity:1;stroke:none;stroke-width:0.14519297"
         id="path5292"
         inkscape:connector-curvature="0" />
      <rect
         transform="matrix(0.94035953,-0.34018224,0.1946696,0.98086887,0,0)"
         y="287.37521"
         x="-28.670759"
         height="0.77167994"
         width="1.6751598"
         id="rect1506-0"
         style="display:inline;fill:#000000;fill-opacity:1;stroke-width:3.26171684;stroke-miterlimit:4;stroke-dasharray:none" />
      <rect
         transform="matrix(0.94035953,-0.34018223,0.1946696,0.98086887,0,0)"
         y="288.43332"
         x="-28.78874"
         height="0.77167994"
         width="1.6751598"
         id="rect1506-0-4"
         style="display:inline;fill:#000000;fill-opacity:1;stroke-width:3.26171684;stroke-miterlimit:4;stroke-dasharray:none" />
      <rect
         y="291.06082"
         x="30.563848"
         height="1.953369"
         width="0.24287921"
         id="rect1194"
         style="fill:#e6e6e6;fill-opacity:1;stroke-width:0.21774566" />
    </g>
    <path
       inkscape:connector-curvature="0"
       style="fill:#000000;fill-opacity:1;fill-rule:nonzero;stroke:none;stroke-width:0.35277775"
       d="m 63.650504,277.52731 c 0,-0.54983 -0.45062,-1.00045 -1.00045,-1.00045 h -7.68256 c -0.54984,0 -0.99908,0.45062 -0.99908,1.00045 v 12.17222 c 0,0.55121 0.44924,1.00045 0.99908,1.00045 h 7.68256 c 0.54983,0 1.00045,-0.44924 1.00045,-1.00045 z m 0,0"
       id="path11907" />
    <g
       aria-label="CV"
       transform="matrix(1.1048344,0,0,0.927198,0,-6.7966105)"
       style="font-style:normal;font-variant:normal;font-weight:normal;font-stretch:normal;font-size:2.33856583px;line-height:1.25;font-family:Saab;-inkscape-font-specification:Saab;font-variant-ligatures:normal;font-variant-caps:normal;font-variant-numeric:normal;font-feature-settings:normal;text-align:center;letter-spacing:0px;word-spacing:0px;writing-mode:lr-tb;text-anchor:middle;fill:#e6e6e6;fill-opacity:1;stroke:none;stroke-width:0.05846415"
       id="text2999">
      <path
         d="m 53.061922,306.15159 v 0.24322 q -0.116472,-0.10848 -0.24893,-0.16215 -0.131316,-0.0537 -0.27976,-0.0537 -0.292321,0 -0.447616,0.17927 -0.155295,0.17813 -0.155295,0.51613 0,0.33685 0.155295,0.51613 0.155295,0.17813 0.447616,0.17813 0.148444,0 0.27976,-0.0537 0.132458,-0.0537 0.24893,-0.16214 v 0.24093 q -0.121039,0.0822 -0.256923,0.12332 -0.134742,0.0411 -0.285469,0.0411 -0.387097,0 -0.609763,-0.23637 -0.222666,-0.23751 -0.222666,-0.64744 0,-0.41108 0.222666,-0.64745 0.222666,-0.23751 0.609763,-0.23751 0.153011,0 0.287753,0.0411 0.135883,0.04 0.254639,0.12104 z"
         style="fill:#e6e6e6;fill-opacity:1;stroke-width:0.05846415"
         id="path3016"
         inkscape:connector-curvature="0" />
      <path
         d="m 53.860094,307.7251 -0.65087,-1.70483 h 0.240936 l 0.540108,1.43534 0.54125,-1.43534 h 0.239795 l -0.649729,1.70483 z"
         style="fill:#e6e6e6;fill-opacity:1;stroke-width:0.05846415"
         id="path3018"
         inkscape:connector-curvature="0" />
    </g>
    <path
       inkscape:connector-curvature="0"
       style="fill:#000000;fill-opacity:1;fill-rule:nonzero;stroke:none;stroke-width:0.35277775"
       d="m 52.015423,277.6847 c 0,-0.54983 -0.450619,-1.00045 -1.00045,-1.00045 h -7.68256 c -0.54984,0 -0.99908,0.45062 -0.99908,1.00045 v 12.17222 c 0,0.55121 0.44924,1.00045 0.99908,1.00045 h 7.68256 c 0.549831,0 1.00045,-0.44924 1.00045,-1.00045 z m 0,0"
       id="path11907-4" />
    <g
       aria-label="GATE"
       transform="matrix(0.91766491,0,0,0.80376397,19.085106,183.70813)"
       style="font-style:normal;font-weight:normal;font-size:4.7239871px;line-height:1.25;font-family:sans-serif;letter-spacing:0px;word-spacing:0px;display:inline;fill:#e6e6e6;fill-opacity:1;stroke:none;stroke-width:0.11809967"
       id="text369-1-8-1">
      <path
         d="M 28.702544,117.02424 H 28.9763 v 0.9144 q -0.03387,0.0113 -0.09878,0.0254 -0.06209,0.0141 -0.146755,0.0282 -0.08185,0.0141 -0.180623,0.0226 -0.09878,0.0113 -0.200377,0.0113 -0.206023,0 -0.375356,-0.0677 -0.169333,-0.0677 -0.290689,-0.19756 -0.121355,-0.12982 -0.189089,-0.31891 -0.06491,-0.18909 -0.06491,-0.43462 0,-0.24554 0.07338,-0.43463 0.0762,-0.19191 0.2032,-0.32173 0.127,-0.12982 0.296333,-0.19755 0.172156,-0.0677 0.366889,-0.0677 0.132645,0 0.234245,0.0169 0.104422,0.0169 0.1778,0.0395 0.07338,0.0226 0.118533,0.0452 0.04798,0.0226 0.06491,0.0339 l -0.08749,0.2286 q -0.08184,-0.0536 -0.217311,-0.0875 -0.135467,-0.0367 -0.276578,-0.0367 -0.149578,0 -0.273755,0.0536 -0.121356,0.0536 -0.208845,0.15523 -0.08467,0.1016 -0.132644,0.24835 -0.04798,0.14393 -0.04798,0.32456 0,0.17497 0.03951,0.31891 0.04233,0.14393 0.124178,0.24835 0.08467,0.1016 0.206022,0.15805 0.124178,0.0564 0.290689,0.0564 0.118533,0 0.200378,-0.0113 0.08467,-0.0141 0.121355,-0.0254 z"
         style="font-style:normal;font-variant:normal;font-weight:normal;font-stretch:normal;font-size:2.82222223px;font-family:Ubuntu;-inkscape-font-specification:'Ubuntu, Normal';font-variant-ligatures:normal;font-variant-caps:normal;font-variant-numeric:normal;font-feature-settings:normal;text-align:start;writing-mode:lr-tb;text-anchor:start;fill:#e6e6e6;fill-opacity:1;stroke-width:0.11809967"
         id="path5278"
         inkscape:connector-curvature="0" />
      <path
         d="m 30.711614,117.98662 q -0.04798,-0.127 -0.09031,-0.24836 -0.04233,-0.12418 -0.08749,-0.25118 h -0.886178 l -0.1778,0.49954 h -0.285045 q 0.112889,-0.31045 0.211667,-0.57291 0.09878,-0.26529 0.191911,-0.50236 0.09596,-0.23707 0.189089,-0.45155 0.09313,-0.21732 0.194733,-0.42898 h 0.251178 q 0.1016,0.21166 0.194734,0.42898 0.09313,0.21448 0.186266,0.45155 0.09596,0.23707 0.194734,0.50236 0.09878,0.26246 0.211666,0.57291 z m -0.256823,-0.72531 q -0.09031,-0.24554 -0.180622,-0.47414 -0.08749,-0.23142 -0.183444,-0.44309 -0.09878,0.21167 -0.189089,0.44309 -0.08749,0.2286 -0.174978,0.47414 z"
         style="font-style:normal;font-variant:normal;font-weight:normal;font-stretch:normal;font-size:2.82222223px;font-family:Ubuntu;-inkscape-font-specification:'Ubuntu, Normal';font-variant-ligatures:normal;font-variant-caps:normal;font-variant-numeric:normal;font-feature-settings:normal;text-align:start;writing-mode:lr-tb;text-anchor:start;fill:#e6e6e6;fill-opacity:1;stroke-width:0.11809967"
         id="path5280"
         inkscape:connector-curvature="0" />
      <path
         d="m 32.398332,116.03082 v 0.23706 h -0.615244 v 1.71874 h -0.273756 v -1.71874 h -0.615244 v -0.23706 z"
         style="font-style:normal;font-variant:normal;font-weight:normal;font-stretch:normal;font-size:2.82222223px;font-family:Ubuntu;-inkscape-font-specification:'Ubuntu, Normal';font-variant-ligatures:normal;font-variant-caps:normal;font-variant-numeric:normal;font-feature-settings:normal;text-align:start;writing-mode:lr-tb;text-anchor:start;fill:#e6e6e6;fill-opacity:1;stroke-width:0.11809967"
         id="path5282"
         inkscape:connector-curvature="0" />
      <path
         d="m 32.684656,117.98662 v -1.9558 h 1.1938 v 0.23424 h -0.920045 v 0.58138 h 0.818445 v 0.2286 h -0.818445 v 0.67733 h 0.9906 v 0.23425 z"
         style="font-style:normal;font-variant:normal;font-weight:normal;font-stretch:normal;font-size:2.82222223px;font-family:Ubuntu;-inkscape-font-specification:'Ubuntu, Normal';font-variant-ligatures:normal;font-variant-caps:normal;font-variant-numeric:normal;font-feature-settings:normal;text-align:start;writing-mode:lr-tb;text-anchor:start;fill:#e6e6e6;fill-opacity:1;stroke-width:0.11809967"
         id="path5284"
         inkscape:connector-curvature="0" />
    </g>
    <g
       id="g968">
      <g
         id="g3133"
         class="com.sun.star.drawing.ClosedBezierShape"
         transform="matrix(0.01,0,0,5.4898417e-4,-14.65,170.38626)">
        <g
           id="id6">
          <rect
             style="fill:none;stroke:none"
             id="rect3128"
             height="170"
             width="143"
             y="10445"
             x="4435"
             class="BoundingBox" />
        </g>
      </g>
      <rect
         transform="scale(-1,1)"
         y="170.30031"
         x="-30.390003"
         height="3.75"
         width="0.028041489"
         id="rect1900"
         style="fill:#000000;fill-opacity:1;stroke-width:0.08845683" />
      <rect
         transform="scale(-1,1)"
         y="170.30031"
         x="-31.183754"
         height="5.25"
         width="0.076482013"
         id="rect1900-4"
         style="fill:#000000;fill-opacity:1;stroke-width:0.17285286" />
      <rect
         transform="scale(-1,1)"
         y="170.30031"
         x="-30.919168"
         height="5.5562449"
         width="0.028041491"
         id="rect1900-9"
         style="fill:#000000;fill-opacity:1;stroke-width:0.10767291" />
      <rect
         transform="scale(-1,1)"
         y="170.43314"
         x="-31.751158"
         height="4.875"
         width="0.076482013"
         id="rect1900-4-0"
         style="fill:#000000;fill-opacity:1;stroke-width:0.16656518" />
      <rect
         transform="scale(-1,1)"
         y="170.52914"
         x="-32.48019"
         height="5.7711544"
         width="0.050000001"
         id="rect1900-4-2"
         style="fill:#000000;fill-opacity:1;stroke-width:0.12261543" />
      <rect
         transform="scale(-1,1)"
         y="170.52914"
         x="-32.279167"
         height="2.0211658"
         width="0.065126829"
         id="rect1900-9-0"
         style="fill:#000000;fill-opacity:1;stroke-width:0.06851838" />
      <rect
         transform="scale(-1,1)"
         y="170.30031"
         x="-31.977501"
         height="1.125"
         width="0.028041491"
         id="rect1900-9-0-1"
         style="fill:#000000;fill-opacity:1;stroke-width:0.04844981" />
    </g>
    <rect
       style="fill:#000000;fill-opacity:1;stroke-width:0.05666155"
       id="rect1900-9-0-7"
       width="0.021573292"
       height="2"
       x="-36.777084"
       y="173.49789"
       transform="scale(-1,1)" />
    <rect
       style="fill:#000000;fill-opacity:1;stroke-width:0.04907034"
       id="rect1900-9-0-1-6"
       width="0.021573292"
       height="1.5"
       x="-33.877453"
       y="173.70415"
       transform="scale(-1,1)" />
    <rect
       style="fill:#000000;fill-opacity:1;stroke-width:0.05666155"
       id="rect1900-9-0-7-4"
       width="0.021573292"
       height="2"
       x="-33.671574"
       y="173.43958"
       transform="scale(-1,1)" />
    <rect
       style="fill:#000000;fill-opacity:1;stroke-width:0.04907034"
       id="rect1900-9-0-1-6-2"
       width="0.021573292"
       height="1.5"
       x="-33.623657"
       y="173.74789"
       transform="scale(-1,1)" />
    <rect
       style="fill:#000000;fill-opacity:1;stroke-width:0.05666155"
       id="rect1900-9-0-7-2"
       width="0.021573292"
       height="2"
       x="-38.386158"
       y="173.86897"
       transform="scale(-1,1)" />
    <rect
       style="fill:#000000;fill-opacity:1;stroke-width:0.04907034"
       id="rect1900-9-0-1-6-22"
       width="0.021573292"
       height="1.5"
       x="-38.221573"
       y="173.67503"
       transform="scale(-1,1)" />
    <path
       inkscape:connector-curvature="0"
       style="fill:#000000;fill-opacity:1;fill-rule:nonzero;stroke:none;stroke-width:0.35277775"
       d="m 38.178545,277.42731 c 0,-0.54983 -0.450619,-1.00045 -1.00045,-1.00045 h -7.68256 c -0.54984,0 -0.99908,0.45062 -0.99908,1.00045 v 12.17222 c 0,0.55121 0.44924,1.00045 0.99908,1.00045 h 7.68256 c 0.549831,0 1.00045,-0.44924 1.00045,-1.00045 z m 0,0"
       id="path11907-4-2" />
    <g
       aria-label="PAN"
       style="font-style:normal;font-variant:normal;font-weight:normal;font-stretch:normal;font-size:10.58333302px;line-height:1.25;font-family:Saab;-inkscape-font-specification:Saab;font-variant-ligatures:normal;font-variant-caps:normal;font-variant-numeric:normal;font-feature-settings:normal;text-align:center;letter-spacing:0px;word-spacing:0px;writing-mode:lr-tb;text-anchor:middle;fill:#e6e6e6;fill-opacity:1;stroke:none;stroke-width:0.26458332"
       id="text1003"
       transform="matrix(0.21300145,0,0,0.21256492,31.391023,215.02285)">
      <path
         d="m 2.0722252,292.01113 v 2.89905 h 1.3125813 q 0.7286377,0 1.1265462,-0.37724 0.3979085,-0.37724 0.3979085,-1.07487 0,-0.69247 -0.3979085,-1.0697 -0.3979085,-0.37724 -1.1265462,-0.37724 z M 1.0283613,291.1533 h 2.3564452 q 1.2970784,0 1.9585368,0.58911 0.6666259,0.58395 0.6666259,1.71566 0,1.14205 -0.6666259,1.72599 -0.6614584,0.58395 -1.9585368,0.58395 H 2.0722252 v 3.10058 H 1.0283613 Z"
         style="fill:#e6e6e6;fill-opacity:1;stroke-width:0.26458332"
         id="path1005"
         inkscape:connector-curvature="0" />
      <path
         d="m 9.3120933,292.18166 -1.4159342,3.83956 H 10.733195 Z M 8.722982,291.1533 h 1.1833903 l 2.9403887,7.71529 h -1.085205 l -0.702799,-1.97921 H 7.5809329 l -0.7027995,1.97921 h -1.100708 z"
         style="fill:#e6e6e6;fill-opacity:1;stroke-width:0.26458332"
         id="path1007"
         inkscape:connector-curvature="0" />
      <path
         d="m 13.96814,291.1533 h 1.405599 l 3.420979,6.45439 v -6.45439 h 1.012858 v 7.71529 h -1.405599 l -3.420979,-6.45438 v 6.45438 H 13.96814 Z"
         style="fill:#e6e6e6;fill-opacity:1;stroke-width:0.26458332"
         id="path1009"
         inkscape:connector-curvature="0" />
    </g>
  </g>
</svg>
