<?xml version="1.0" encoding="UTF-8"?>
<!DOCTYPE svg PUBLIC "-//W3C//DTD SVG 1.1//EN" "http://www.w3.org/Graphics/SVG/1.1/DTD/svg11.dtd">
<svg version="1.2" width="53mm" height="134.06mm" viewBox="0 0 5300 13406" preserveAspectRatio="xMidYMid" fill-rule="evenodd" stroke-width="28.222" stroke-linejoin="round" xmlns="http://www.w3.org/2000/svg" xmlns:ooo="http://xml.openoffice.org/svg/export" xmlns:xlink="http://www.w3.org/1999/xlink" xmlns:presentation="http://sun.com/xmlns/staroffice/presentation" xmlns:smil="http://www.w3.org/2001/SMIL20/" xmlns:anim="urn:oasis:names:tc:opendocument:xmlns:animation:1.0" xml:space="preserve">
 <defs class="ClipPathGroup">
  <clipPath id="presentation_clip_path" clipPathUnits="userSpaceOnUse">
   <rect x="0" y="0" width="5300" height="13406"/>
  </clipPath>
  <clipPath id="presentation_clip_path_shrink" clipPathUnits="userSpaceOnUse">
   <rect x="5" y="13" width="5290" height="13380"/>
  </clipPath>
 </defs>
 <defs class="TextShapeIndex">
  <g ooo:slide="id1" ooo:id-list="id3 id4 id5 id6 id7 id8 id9 id10 id11 id12 id13 id14 id15 id16 id17 id18 id19 id20 id21 id22 id23 id24 id25 id26 id27 id28 id29 id30 id31 id32 id33 id34 id35 id36 id37 id38 id39 id40 id41 id42 id43 id44 id45 id46 id47 id48 id49 id50 id51 id52 id53 id54 id55 id56 id57 id58 id59 id60 id61 id62 id63 id64 id65 id66 id67 id68 id69 id70 id71 id72 id73 id74 id75 id76 id77"/>
 </defs>
 <defs class="EmbeddedBulletChars">
  <g id="bullet-char-template-57356" transform="scale(0.00048828125,-0.00048828125)">
   <path d="M 580,1141 L 1163,571 580,0 -4,571 580,1141 Z"/>
  </g>
  <g id="bullet-char-template-57354" transform="scale(0.00048828125,-0.00048828125)">
   <path d="M 8,1128 L 1137,1128 1137,0 8,0 8,1128 Z"/>
  </g>
  <g id="bullet-char-template-10146" transform="scale(0.00048828125,-0.00048828125)">
   <path d="M 174,0 L 602,739 174,1481 1456,739 174,0 Z M 1358,739 L 309,1346 659,739 1358,739 Z"/>
  </g>
  <g id="bullet-char-template-10132" transform="scale(0.00048828125,-0.00048828125)">
   <path d="M 2015,739 L 1276,0 717,0 1260,543 174,543 174,936 1260,936 717,1481 1274,1481 2015,739 Z"/>
  </g>
  <g id="bullet-char-template-10007" transform="scale(0.00048828125,-0.00048828125)">
   <path d="M 0,-2 C -7,14 -16,27 -25,37 L 356,567 C 262,823 215,952 215,954 215,979 228,992 255,992 264,992 276,990 289,987 310,991 331,999 354,1012 L 381,999 492,748 772,1049 836,1024 860,1049 C 881,1039 901,1025 922,1006 886,937 835,863 770,784 769,783 710,716 594,584 L 774,223 C 774,196 753,168 711,139 L 727,119 C 717,90 699,76 672,76 641,76 570,178 457,381 L 164,-76 C 142,-110 111,-127 72,-127 30,-127 9,-110 8,-76 1,-67 -2,-52 -2,-32 -2,-23 -1,-13 0,-2 Z"/>
  </g>
  <g id="bullet-char-template-10004" transform="scale(0.00048828125,-0.00048828125)">
   <path d="M 285,-33 C 182,-33 111,30 74,156 52,228 41,333 41,471 41,549 55,616 82,672 116,743 169,778 240,778 293,778 328,747 346,684 L 369,508 C 377,444 397,411 428,410 L 1163,1116 C 1174,1127 1196,1133 1229,1133 1271,1133 1292,1118 1292,1087 L 1292,965 C 1292,929 1282,901 1262,881 L 442,47 C 390,-6 338,-33 285,-33 Z"/>
  </g>
  <g id="bullet-char-template-9679" transform="scale(0.00048828125,-0.00048828125)">
   <path d="M 813,0 C 632,0 489,54 383,161 276,268 223,411 223,592 223,773 276,916 383,1023 489,1130 632,1184 813,1184 992,1184 1136,1130 1245,1023 1353,916 1407,772 1407,592 1407,412 1353,268 1245,161 1136,54 992,0 813,0 Z"/>
  </g>
  <g id="bullet-char-template-8226" transform="scale(0.00048828125,-0.00048828125)">
   <path d="M 346,457 C 273,457 209,483 155,535 101,586 74,649 74,723 74,796 101,859 155,911 209,963 273,989 346,989 419,989 480,963 531,910 582,859 608,796 608,723 608,648 583,586 532,535 482,483 420,457 346,457 Z"/>
  </g>
  <g id="bullet-char-template-8211" transform="scale(0.00048828125,-0.00048828125)">
   <path d="M -4,459 L 1135,459 1135,606 -4,606 -4,459 Z"/>
  </g>
  <g id="bullet-char-template-61548" transform="scale(0.00048828125,-0.00048828125)">
   <path d="M 173,740 C 173,903 231,1043 346,1159 462,1274 601,1332 765,1332 928,1332 1067,1274 1183,1159 1299,1043 1357,903 1357,740 1357,577 1299,437 1183,322 1067,206 928,148 765,148 601,148 462,206 346,322 231,437 173,577 173,740 Z"/>
  </g>
 </defs>
 <defs class="TextEmbeddedBitmaps"/>
 <g>
  <g id="id2" class="Master_Slide">
   <g id="bg-id2" class="Background"/>
   <g id="bo-id2" class="BackgroundObjects"/>
  </g>
 </g>
 <g class="SlideGroup">
  <g>
   <g id="container-id1">
    <g id="id1" class="Slide" clip-path="url(#presentation_clip_path)">
     <g class="Page">
      <g class="com.sun.star.drawing.PolyPolygonShape">
       <g id="id3">
        <rect class="BoundingBox" stroke="none" fill="none" x="18" y="0" width="5283" height="13388"/>
        <path fill="rgb(230,230,230)" stroke="none" d="M 19,0 L 5300,0 5300,0 19,13387 19,13387 Z M 19,0 L 19,0 Z"/>
       </g>
      </g>
      <g class="com.sun.star.drawing.ClosedBezierShape">
       <g id="id4">
        <rect class="BoundingBox" stroke="none" fill="none" x="4742" y="7595" width="180" height="175"/>
        <path fill="rgb(230,230,230)" stroke="none" d="M 4831,0 C 4883,7769 4921,7769 4921,7730 4921,7682 4884,7634 4832,7595 4780,7595 4742,7595 4742,7634 L 4742,7682 C 4742,7682 4780,7730 4831,7769 Z M 4832,7769 C 4802,7735 4781,7735 4781,7711 4781,7682 4802,7653 4831,7629 4861,7629 4883,7629 4883,7653 L 4883,7682 C 4883,7682 4862,7711 4832,7735 Z M 4832,7735 L 4832,7735 Z"/>
       </g>
      </g>
      <g class="com.sun.star.drawing.ClosedBezierShape">
       <g id="id5">
        <rect class="BoundingBox" stroke="none" fill="none" x="4958" y="7595" width="148" height="175"/>
        <path fill="rgb(230,230,230)" stroke="none" d="M 5031,0 C 5077,7769 5105,7769 5105,7743 L 5105,7693 C 5105,7615 5097,7604 5087,7596 5076,7596 5068,7596 5068,7604 L 5068,7615 C 5068,7694 5054,7721 5032,7735 5009,7735 4995,7735 4995,7720 L 4995,7693 C 4995,7615 4987,7604 4977,7596 4967,7596 4958,7596 4958,7604 L 4958,7615 C 4958,7694 4986,7743 5031,7769 Z M 5031,7769 L 5031,7769 Z"/>
       </g>
      </g>
      <g class="com.sun.star.drawing.ClosedBezierShape">
       <g id="id6">
        <rect class="BoundingBox" stroke="none" fill="none" x="5135" y="7597" width="143" height="170"/>
        <path fill="rgb(230,230,230)" stroke="none" d="M 5188,0 C 5188,7748 5196,7758 5206,7766 5217,7766 5225,7766 5225,7758 L 5225,7748 5260,7631 C 5270,7631 5277,7631 5277,7624 5277,7614 5270,7605 5260,7597 L 5152,7597 C 5143,7597 5135,7597 5135,7605 5135,7614 5143,7624 5152,7631 L 5188,7631 5188,7631 Z M 5188,7748 L 5188,7748 Z"/>
       </g>
      </g>
      <g class="com.sun.star.drawing.ClosedBezierShape">
       <g id="id7">
        <rect class="BoundingBox" stroke="none" fill="none" x="4042" y="10442" width="180" height="175"/>
        <path fill="rgb(230,230,230)" stroke="none" d="M 4131,0 C 4183,10616 4221,10616 4221,10577 4221,10529 4184,10481 4132,10442 4080,10442 4042,10442 4042,10481 L 4042,10529 C 4042,10529 4080,10577 4131,10616 Z M 4132,10616 C 4102,10582 4081,10582 4081,10558 4081,10529 4102,10500 4131,10476 4161,10476 4183,10476 4183,10500 L 4183,10529 C 4183,10529 4162,10558 4132,10582 Z M 4132,10582 L 4132,10582 Z"/>
       </g>
      </g>
      <g class="com.sun.star.drawing.ClosedBezierShape">
       <g id="id8">
        <rect class="BoundingBox" stroke="none" fill="none" x="4258" y="10443" width="148" height="175"/>
        <path fill="rgb(230,230,230)" stroke="none" d="M 4331,0 C 4377,10617 4405,10617 4405,10591 L 4405,10541 C 4405,10463 4397,10452 4387,10444 4376,10444 4368,10444 4368,10452 L 4368,10463 C 4368,10542 4354,10569 4332,10583 4309,10583 4295,10583 4295,10568 L 4295,10541 C 4295,10463 4287,10452 4277,10444 4267,10444 4258,10444 4258,10452 L 4258,10463 C 4258,10542 4286,10591 4331,10617 Z M 4331,10617 L 4331,10617 Z"/>
       </g>
      </g>
      <g class="com.sun.star.drawing.ClosedBezierShape">
       <g id="id9">
        <rect class="BoundingBox" stroke="none" fill="none" x="4435" y="10445" width="143" height="170"/>
        <path fill="rgb(230,230,230)" stroke="none" d="M 4488,0 C 4488,10596 4496,10606 4506,10614 4517,10614 4525,10614 4525,10606 L 4525,10596 4560,10479 C 4570,10479 4577,10479 4577,10472 4577,10462 4570,10453 4560,10445 L 4452,10445 C 4443,10445 4435,10445 4435,10453 4435,10462 4443,10472 4452,10479 L 4488,10479 4488,10479 Z M 4488,10596 L 4488,10596 Z"/>
       </g>
      </g>
      <g class="com.sun.star.drawing.ClosedBezierShape">
       <g id="id10">
        <rect class="BoundingBox" stroke="none" fill="none" x="4042" y="2095" width="180" height="175"/>
        <path fill="rgb(230,230,230)" stroke="none" d="M 4131,0 C 4183,2269 4221,2269 4221,2230 4221,2182 4184,2134 4132,2095 4080,2095 4042,2095 4042,2134 L 4042,2182 C 4042,2182 4080,2230 4131,2269 Z M 4132,2269 C 4102,2235 4081,2235 4081,2211 4081,2182 4102,2153 4131,2129 4161,2129 4183,2129 4183,2153 L 4183,2182 C 4183,2182 4162,2211 4132,2235 Z M 4132,2235 L 4132,2235 Z"/>
       </g>
      </g>
      <g class="com.sun.star.drawing.ClosedBezierShape">
       <g id="id11">
        <rect class="BoundingBox" stroke="none" fill="none" x="4258" y="2096" width="148" height="174"/>
        <path fill="rgb(230,230,230)" stroke="none" d="M 4331,0 C 4377,2269 4405,2269 4405,2243 L 4405,2193 C 4405,2115 4397,2104 4387,2096 4376,2096 4368,2096 4368,2104 L 4368,2115 C 4368,2194 4354,2221 4332,2235 4309,2235 4295,2235 4295,2220 L 4295,2193 C 4295,2115 4287,2104 4277,2096 4267,2096 4258,2096 4258,2104 L 4258,2115 C 4258,2194 4286,2243 4331,2269 Z M 4331,2269 L 4331,2269 Z"/>
       </g>
      </g>
      <g class="com.sun.star.drawing.ClosedBezierShape">
       <g id="id12">
        <rect class="BoundingBox" stroke="none" fill="none" x="4435" y="2098" width="143" height="170"/>
        <path fill="rgb(230,230,230)" stroke="none" d="M 4488,0 C 4488,2249 4496,2259 4506,2267 4517,2267 4525,2267 4525,2259 L 4525,2249 4560,2132 C 4570,2132 4577,2132 4577,2125 4577,2115 4570,2106 4560,2098 L 4452,2098 C 4443,2098 4435,2098 4435,2106 4435,2115 4443,2125 4452,2132 L 4488,2132 4488,2132 Z M 4488,2249 L 4488,2249 Z"/>
       </g>
      </g>
      <g class="com.sun.star.drawing.PolyPolygonShape">
       <g id="id13">
        <rect class="BoundingBox" stroke="none" fill="none" x="6476" y="3465" width="4198" height="1465"/>
        <path fill="rgb(0,0,0)" stroke="none" d="M 8574,0 L 6476,4928 6476,4928 10673,3465 10673,3465 8574,4928 Z"/>
       </g>
      </g>
      <g class="com.sun.star.drawing.PolyPolygonShape">
       <g id="id14">
        <rect class="BoundingBox" stroke="none" fill="none" x="14822" y="289" width="4537" height="1514"/>
        <path fill="rgb(0,0,0)" stroke="none" d="M 17090,0 L 14822,1802 14822,1802 19358,289 19358,289 17090,1802 Z"/>
       </g>
      </g>
      <g class="com.sun.star.drawing.PolyPolygonShape">
       <g id="id15">
        <rect class="BoundingBox" stroke="none" fill="none" x="14676" y="341" width="4840" height="1856"/>
        <path fill="rgb(0,0,0)" stroke="none" d="M 17096,0 L 14677,2196 14677,2196 19515,342 19515,342 17096,2196 Z"/>
       </g>
      </g>
      <g class="com.sun.star.drawing.ClosedBezierShape">
       <g id="id16">
        <rect class="BoundingBox" stroke="none" fill="none" x="4074" y="3808" width="1012" height="1480"/>
        <path fill="rgb(33,33,33)" stroke="none" d="M 5085,0 C 5085,3912 5038,3855 4981,3808 L 4178,3808 C 4121,3808 4074,3808 4074,3855 L 4074,3912 C 4074,5183 4121,5241 4178,5287 L 4981,5287 C 5038,5287 5085,5287 5085,5241 L 5085,5183 Z"/>
       </g>
      </g>
      <g class="com.sun.star.drawing.LineShape">
       <g id="id17">
        <rect class="BoundingBox" stroke="none" fill="none" x="4609" y="3319" width="23" height="548"/>
        <path fill="none" stroke="rgb(0,0,0)" stroke-width="11" stroke-linejoin="round" d="M 4625,0 L 4615,3325"/>
       </g>
      </g>
      <g class="com.sun.star.drawing.ClosedBezierShape">
       <g id="id18">
        <rect class="BoundingBox" stroke="none" fill="none" x="253" y="3794" width="1028" height="1496"/>
        <path fill="none" stroke="rgb(0,0,0)" stroke-width="16" stroke-linejoin="miter" d="M 1272,0 C 1272,3906 1225,3849 1168,3802 L 365,3802 C 308,3802 261,3802 261,3849 L 261,3906 C 261,5177 308,5235 365,5281 L 1168,5281 C 1225,5281 1272,5281 1272,5235 L 1272,5177 Z"/>
       </g>
      </g>
      <g class="com.sun.star.drawing.LineShape">
       <g id="id19">
        <rect class="BoundingBox" stroke="none" fill="none" x="766" y="3341" width="24" height="454"/>
        <path fill="none" stroke="rgb(0,0,0)" stroke-width="11" stroke-linejoin="round" d="M 783,0 L 772,3347"/>
       </g>
      </g>
      <g class="com.sun.star.drawing.ClosedBezierShape">
       <g id="id20">
        <rect class="BoundingBox" stroke="none" fill="none" x="3968" y="7374" width="1013" height="1480"/>
        <path fill="rgb(33,33,33)" stroke="none" d="M 4980,0 C 4980,7478 4933,7421 4876,7374 L 4073,7374 C 4016,7374 3969,7374 3969,7421 L 3969,7478 C 3969,8749 4016,8807 4073,8853 L 4876,8853 C 4933,8853 4980,8853 4980,8807 L 4980,8749 Z"/>
       </g>
      </g>
      <g class="com.sun.star.drawing.LineShape">
       <g id="id21">
        <rect class="BoundingBox" stroke="none" fill="none" x="4504" y="6884" width="23" height="548"/>
        <path fill="none" stroke="rgb(0,0,0)" stroke-width="11" stroke-linejoin="round" d="M 4520,0 L 4510,6890"/>
       </g>
      </g>
      <g class="com.sun.star.drawing.ClosedBezierShape">
       <g id="id22">
        <rect class="BoundingBox" stroke="none" fill="none" x="249" y="7360" width="1028" height="1496"/>
        <path fill="none" stroke="rgb(0,0,0)" stroke-width="16" stroke-linejoin="miter" d="M 1268,0 C 1268,7472 1221,7415 1164,7368 L 361,7368 C 304,7368 257,7368 257,7415 L 257,7472 C 257,8743 304,8801 361,8847 L 1164,8847 C 1221,8847 1268,8847 1268,8801 L 1268,8743 Z"/>
       </g>
      </g>
      <g class="com.sun.star.drawing.LineShape">
       <g id="id23">
        <rect class="BoundingBox" stroke="none" fill="none" x="761" y="6907" width="24" height="454"/>
        <path fill="none" stroke="rgb(0,0,0)" stroke-width="11" stroke-linejoin="round" d="M 778,0 L 767,6913"/>
       </g>
      </g>
      <g class="com.sun.star.drawing.ClosedBezierShape">
       <g id="id24">
        <rect class="BoundingBox" stroke="none" fill="none" x="3568" y="10957" width="138" height="290"/>
        <path fill="rgb(236,236,236)" stroke="none" d="M 3568,0 C 3568,11026 3570,11015 3574,11005 3578,10996 3583,10987 3590,10980 3596,10975 3604,10969 3612,10964 3620,10961 3628,10958 3637,10957 3645,10957 3653,10957 3661,10958 3669,10961 3677,10964 3683,10969 3690,10975 3695,10980 3699,10987 3703,10996 3705,11005 3705,11015 L 3705,11026 C 3705,11177 3703,11188 3699,11199 3695,11207 3690,11216 3683,11223 3677,11229 3669,11235 3661,11239 3653,11242 3645,11245 3637,11246 3628,11246 3620,11246 3612,11245 3604,11242 3596,11239 3590,11235 3583,11229 3578,11223 3574,11216 3570,11207 3568,11199 3568,11188 L 3568,11177 Z M 3609,11026 C 3609,11177 3612,11186 3617,11194 3623,11199 3629,11203 3637,11205 3644,11205 3650,11205 3656,11203 3661,11199 3664,11194 3664,11186 L 3664,11177 C 3664,11026 3661,11017 3656,11009 3650,11005 3644,11000 3637,10998 3629,10998 3623,10998 3617,11000 3612,11005 3609,11009 3609,11017 L 3609,11026 Z"/>
       </g>
      </g>
      <g class="com.sun.star.drawing.ClosedBezierShape">
       <g id="id25">
        <rect class="BoundingBox" stroke="none" fill="none" x="3740" y="10959" width="134" height="288"/>
        <path fill="rgb(236,236,236)" stroke="none" d="M 3872,0 C 3872,11179 3871,11189 3867,11197 3864,11205 3859,11213 3853,11220 3847,11227 3840,11232 3832,11237 3824,11241 3815,11244 3806,11246 3797,11246 3789,11246 3781,11244 3772,11241 3765,11237 3759,11232 3753,11227 3749,11220 3745,11213 3742,11205 3740,11197 3740,11189 L 3740,11179 3781,10959 3781,10959 C 3781,11175 3783,11186 3788,11193 3793,11198 3799,11203 3806,11205 3813,11205 3819,11205 3824,11203 3829,11198 3831,11193 3831,11186 L 3831,11175 3872,10959 3872,10959 Z"/>
       </g>
      </g>
      <g class="com.sun.star.drawing.PolyPolygonShape">
       <g id="id26">
        <rect class="BoundingBox" stroke="none" fill="none" x="3889" y="10959" width="137" height="285"/>
        <path fill="rgb(236,236,236)" stroke="none" d="M 3936,0 L 3889,10997 3889,10997 4025,10959 4025,10959 3977,10997 3977,10997 3936,11243 3936,11243 Z"/>
       </g>
      </g>
      <g class="com.sun.star.drawing.ClosedBezierShape">
       <g id="id27">
        <rect class="BoundingBox" stroke="none" fill="none" x="249" y="10872" width="1028" height="1496"/>
        <path fill="none" stroke="rgb(0,0,0)" stroke-width="16" stroke-linejoin="miter" d="M 1268,0 C 1268,10984 1221,10927 1164,10880 L 361,10880 C 304,10880 257,10880 257,10927 L 257,10984 C 257,12255 304,12313 361,12359 L 1164,12359 C 1221,12359 1268,12359 1268,12313 L 1268,12255 Z"/>
       </g>
      </g>
      <g class="com.sun.star.drawing.LineShape">
       <g id="id28">
        <rect class="BoundingBox" stroke="none" fill="none" x="761" y="10419" width="24" height="454"/>
        <path fill="none" stroke="rgb(0,0,0)" stroke-width="11" stroke-linejoin="round" d="M 778,0 L 767,10425"/>
       </g>
      </g>
      <g class="com.sun.star.drawing.ClosedBezierShape">
       <g id="id29">
        <rect class="BoundingBox" stroke="none" fill="none" x="3969" y="7505" width="255" height="276"/>
        <path fill="rgb(0,0,0)" stroke="none" d="M 3970,0 C 3970,7641 3970,7639 3970,7636 3970,7634 3970,7631 3970,7629 3970,7626 3970,7624 3971,7621 3971,7619 3971,7616 3972,7614 3972,7612 3972,7609 3973,7607 3973,7605 3974,7602 3974,7600 3975,7598 3975,7596 3976,7593 3977,7591 3977,7589 3978,7587 3979,7585 3979,7583 3980,7581 3981,7579 3982,7577 3983,7575 3984,7573 3985,7571 3985,7569 3986,7567 3987,7565 3988,7563 3990,7561 3991,7560 3992,7558 3993,7556 3994,7555 3995,7553 3997,7551 3998,7550 3999,7548 4000,7546 4002,7545 4003,7543 4005,7542 4006,7540 4007,7539 4009,7538 4011,7536 4012,7535 4014,7534 4015,7532 4017,7531 4019,7530 4020,7529 4022,7527 4024,7526 4025,7525 4027,7524 4029,7523 4031,7522 4033,7521 4035,7520 4037,7519 4039,7518 4041,7517 4043,7516 4045,7515 4047,7515 4049,7514 4051,7513 4053,7512 4055,7512 4058,7511 4060,7510 4062,7510 4064,7509 4067,7509 4069,7508 4072,7508 4074,7507 4076,7507 4079,7507 4081,7506 4084,7506 4086,7506 4089,7506 4092,7505 4094,7505 4097,7505 4100,7505 4102,7505 4106,7505 4110,7505 4114,7505 4118,7505 4122,7506 4125,7506 4129,7506 4132,7507 4136,7507 4137,7507 4139,7508 4141,7508 4142,7508 4144,7509 4146,7509 4147,7509 4149,7510 4150,7510 4152,7511 4153,7511 4154,7511 4156,7512 4157,7512 4159,7513 4160,7513 4161,7514 4163,7514 4164,7515 4165,7515 4167,7516 4168,7516 4169,7517 4171,7517 4172,7518 4173,7519 4174,7519 4175,7520 4177,7521 4178,7521 4179,7522 4180,7523 4181,7523 4182,7524 4183,7525 4184,7525 4185,7526 4186,7527 4187,7528 4188,7529 4189,7529 4190,7530 4191,7531 4192,7532 4193,7533 4194,7533 4195,7534 4196,7535 4197,7536 4198,7537 4198,7538 4199,7539 4200,7540 4201,7541 4202,7542 4202,7543 4203,7544 4204,7545 4205,7546 4205,7547 4206,7548 4207,7549 4208,7550 4208,7551 4209,7552 4210,7553 4210,7554 4211,7555 4212,7556 4212,7557 4213,7559 4213,7560 4215,7561 4216,7563 4217,7566 4205,7568 4194,7571 4182,7575 4182,7578 4181,7577 4180,7575 4179,7573 4178,7572 4177,7570 4176,7569 4175,7567 4174,7566 4173,7564 4172,7563 4171,7562 4170,7560 4169,7560 4169,7559 4168,7558 4168,7558 4167,7557 4166,7556 4166,7556 4165,7555 4164,7555 4164,7554 4163,7553 4162,7553 4162,7552 4161,7552 4160,7551 4159,7551 4159,7550 4158,7550 4157,7549 4156,7549 4155,7548 4155,7548 4154,7547 4153,7547 4152,7546 4151,7546 4150,7545 4150,7545 4149,7544 4148,7544 4147,7543 4146,7543 4145,7543 4144,7542 4143,7542 4142,7542 4141,7541 4140,7541 4139,7540 4138,7540 4137,7540 4136,7539 4135,7539 4134,7539 4133,7539 4132,7538 4131,7538 4130,7538 4129,7537 4128,7537 4127,7537 4125,7537 4124,7537 4122,7536 4120,7536 4117,7536 4115,7535 4112,7535 4109,7535 4107,7535 4104,7535 4101,7535 4099,7535 4097,7535 4095,7535 4093,7535 4092,7535 4090,7535 4088,7535 4086,7535 4084,7535 4082,7536 4080,7536 4079,7536 4077,7536 4075,7537 4074,7537 4072,7538 4070,7538 4069,7538 4067,7539 4065,7539 4064,7540 4062,7540 4061,7541 4059,7542 4058,7542 4056,7543 4055,7544 4053,7544 4052,7545 4051,7546 4049,7546 4048,7547 4047,7548 4045,7549 4044,7550 4043,7551 4042,7551 4040,7552 4039,7553 4038,7554 4037,7555 4036,7556 4035,7557 4034,7558 4033,7559 4032,7560 4031,7562 4030,7563 4029,7564 4028,7565 4027,7566 4026,7567 4025,7569 4024,7570 4023,7571 4022,7572 4022,7574 4021,7575 4020,7577 4019,7578 4019,7579 4018,7581 4017,7582 4017,7584 4016,7585 4015,7587 4015,7588 4014,7590 4014,7591 4013,7593 4013,7594 4012,7596 4012,7598 4011,7599 4011,7601 4010,7603 4010,7604 4010,7606 4009,7608 4009,7609 4009,7611 4008,7613 4008,7615 4008,7617 4007,7618 4007,7620 4007,7622 4007,7624 4007,7626 4007,7628 4007,7630 4006,7634 4006,7637 4006,7641 4006,7643 4006,7645 4006,7647 4007,7649 4007,7651 4007,7653 4007,7655 4007,7657 4007,7659 4008,7661 4008,7663 4008,7664 4008,7666 4009,7668 4009,7670 4009,7672 4010,7673 4010,7675 4011,7677 4011,7679 4012,7680 4012,7682 4013,7684 4013,7685 4014,7687 4014,7689 4015,7690 4015,7692 4016,7694 4017,7695 4017,7697 4018,7698 4019,7700 4020,7701 4020,7703 4021,7704 4022,7706 4023,7707 4024,7708 4024,7710 4025,7711 4026,7712 4027,7714 4028,7715 4029,7716 4030,7718 4031,7719 4032,7720 4033,7721 4034,7722 4035,7724 4036,7725 4038,7726 4039,7727 4040,7728 4041,7729 4042,7730 4044,7731 4045,7732 4046,7733 4048,7734 4049,7735 4050,7736 4052,7736 4053,7737 4054,7738 4056,7739 4057,7740 4059,7740 4060,7741 4062,7742 4063,7743 4065,7743 4066,7744 4068,7744 4070,7745 4071,7746 4073,7746 4075,7747 4076,7747 4078,7747 4080,7748 4081,7748 4083,7749 4085,7749 4087,7749 4089,7749 4091,7750 4092,7750 4094,7750 4096,7750 4098,7750 4100,7750 4102,7751 4104,7751 4107,7751 4109,7751 4112,7750 4114,7750 4117,7750 4119,7750 4122,7750 4124,7750 4126,7749 4128,7749 4131,7749 4133,7748 4135,7748 4137,7747 4139,7747 4142,7747 4144,7746 4146,7745 4148,7745 4150,7744 4151,7744 4153,7743 4155,7742 4157,7742 4159,7741 4160,7740 4162,7740 4164,7739 4165,7738 4167,7737 4169,7737 4170,7736 4172,7735 4173,7734 4174,7733 4176,7732 4177,7732 4178,7731 4180,7730 4181,7729 4182,7728 4183,7727 4184,7726 4185,7725 4187,7725 4188,7724 4188,7723 4189,7722 4189,7721 4189,7705 4189,7689 4163,7673 4136,7673 4110,7673 4110,7673 4110,7663 4110,7653 4147,7643 4185,7643 4223,7643 4223,7643 4223,7673 4223,7704 4221,7735 4220,7736 4218,7738 4216,7739 4215,7741 4213,7742 4211,7744 4210,7745 4208,7746 4206,7748 4204,7749 4202,7751 4200,7752 4198,7753 4196,7755 4193,7756 4191,7757 4189,7759 4187,7760 4184,7761 4182,7762 4180,7763 4177,7764 4175,7765 4172,7767 4170,7768 4167,7769 4165,7770 4162,7770 4159,7771 4156,7772 4154,7773 4151,7774 4148,7774 4145,7775 4142,7776 4139,7776 4136,7777 4133,7777 4130,7778 4127,7778 4124,7779 4120,7779 4117,7779 4114,7780 4111,7780 4107,7780 4104,7780 4101,7780 4098,7780 4096,7780 4093,7780 4090,7780 4088,7780 4085,7779 4083,7779 4080,7779 4077,7779 4075,7778 4072,7778 4070,7777 4068,7777 4065,7776 4063,7776 4061,7775 4058,7775 4056,7774 4054,7773 4052,7773 4049,7772 4047,7771 4045,7770 4043,7770 4041,7769 4039,7768 4037,7767 4035,7766 4033,7765 4031,7764 4029,7763 4027,7762 4026,7761 4024,7760 4022,7758 4020,7757 4019,7756 4017,7755 4015,7754 4014,7752 4012,7751 4011,7750 4009,7748 4007,7747 4006,7745 4005,7744 4003,7742 4002,7741 4000,7739 3999,7738 3998,7736 3997,7734 3995,7733 3994,7731 3993,7729 3992,7728 3991,7726 3990,7724 3988,7722 3987,7721 3986,7719 3985,7717 3985,7715 3984,7713 3983,7711 3982,7709 3981,7707 3980,7705 3979,7703 3979,7701 3978,7699 3977,7697 3977,7695 3976,7693 3975,7691 3975,7688 3974,7686 3974,7684 3973,7682 3973,7679 3972,7677 3972,7675 3972,7673 3971,7670 3971,7668 3971,7666 3970,7663 3970,7661 3970,7659 3970,7656 3970,7654 3970,7651 3970,7649 3970,7646 3970,7644 Z"/>
       </g>
      </g>
      <g class="com.sun.star.drawing.ClosedBezierShape">
       <g id="id30">
        <rect class="BoundingBox" stroke="none" fill="none" x="4255" y="7509" width="260" height="268"/>
        <path fill="rgb(0,0,0)" stroke="none" d="M 4476,0 C 4466,7776 4456,7750 4446,7724 4405,7698 4365,7698 4324,7698 4314,7698 4304,7724 4293,7750 4281,7776 4268,7776 4256,7776 4292,7776 4328,7687 4365,7598 4378,7509 4392,7509 4406,7509 4442,7509 4477,7598 4513,7687 4501,7776 4488,7776 4476,7776 Z M 4400,7776 C 4399,7582 4397,7576 4395,7571 4393,7566 4392,7561 4390,7557 4389,7552 4388,7549 4386,7545 4386,7541 4386,7540 4385,7539 4385,7538 4385,7538 4385,7537 4385,7537 4385,7537 4385,7537 4385,7537 4385,7536 4385,7536 4385,7536 4385,7536 4385,7536 4385,7537 4385,7537 4385,7537 4384,7537 4384,7537 4384,7538 4384,7538 4383,7539 4383,7540 4382,7542 4381,7545 4380,7549 4378,7552 4376,7557 4375,7562 4373,7567 4371,7572 4369,7577 4358,7582 4346,7611 4335,7640 4368,7670 4402,7670 4435,7670 4423,7670 4412,7640 4400,7611 Z"/>
       </g>
      </g>
      <g class="com.sun.star.drawing.ClosedBezierShape">
       <g id="id31">
        <rect class="BoundingBox" stroke="none" fill="none" x="4496" y="7508" width="222" height="269"/>
        <path fill="rgb(0,0,0)" stroke="none" d="M 4624,0 C 4624,7538 4624,7617 4624,7696 4612,7776 4600,7776 4588,7776 4588,7776 4588,7696 4588,7617 4558,7538 4527,7538 4497,7538 4497,7538 4497,7528 4497,7518 4570,7508 4643,7508 4716,7508 4716,7508 4716,7518 4716,7528 4686,7538 4655,7538 4624,7538 Z"/>
       </g>
      </g>
      <g class="com.sun.star.drawing.ClosedBezierShape">
       <g id="id32">
        <rect class="BoundingBox" stroke="none" fill="none" x="4756" y="7509" width="213" height="268"/>
        <path fill="rgb(0,0,0)" stroke="none" d="M 4757,0 C 4757,7776 4757,7687 4757,7598 4824,7509 4892,7509 4959,7509 4959,7509 4959,7519 4959,7529 4904,7539 4848,7539 4793,7539 4793,7539 4793,7567 4793,7596 4845,7624 4896,7624 4948,7624 4948,7624 4948,7634 4948,7643 4896,7653 4845,7653 4793,7653 4793,7653 4793,7684 4793,7715 4851,7746 4909,7746 4967,7746 4967,7746 4967,7756 4967,7766 4897,7776 4827,7776 4757,7776 Z"/>
       </g>
      </g>
      <g class="com.sun.star.drawing.ClosedBezierShape">
       <g id="id33">
        <rect class="BoundingBox" stroke="none" fill="none" x="4673" y="11105" width="180" height="175"/>
        <path fill="rgb(230,230,230)" stroke="none" d="M 4762,0 C 4814,11279 4852,11279 4852,11240 4852,11192 4815,11144 4763,11105 4711,11105 4673,11105 4673,11144 L 4673,11192 C 4673,11192 4711,11240 4762,11279 Z M 4763,11279 C 4733,11245 4712,11245 4712,11221 4712,11192 4733,11163 4762,11139 4792,11139 4814,11139 4814,11163 L 4814,11192 C 4814,11192 4793,11221 4763,11245 Z M 4763,11245 L 4763,11245 Z"/>
       </g>
      </g>
      <g class="com.sun.star.drawing.ClosedBezierShape">
       <g id="id34">
        <rect class="BoundingBox" stroke="none" fill="none" x="4889" y="11106" width="148" height="174"/>
        <path fill="rgb(230,230,230)" stroke="none" d="M 4962,0 C 5008,11279 5036,11279 5036,11253 L 5036,11203 C 5036,11125 5028,11114 5018,11106 5007,11106 4999,11106 4999,11114 L 4999,11125 C 4999,11204 4985,11231 4963,11245 4940,11245 4926,11245 4926,11230 L 4926,11203 C 4926,11125 4918,11114 4908,11106 4898,11106 4889,11106 4889,11114 L 4889,11125 C 4889,11204 4917,11253 4962,11279 Z M 4962,11279 L 4962,11279 Z"/>
       </g>
      </g>
      <g class="com.sun.star.drawing.ClosedBezierShape">
       <g id="id35">
        <rect class="BoundingBox" stroke="none" fill="none" x="5066" y="11107" width="144" height="170"/>
        <path fill="rgb(230,230,230)" stroke="none" d="M 5119,0 C 5119,11258 5127,11268 5137,11276 5148,11276 5156,11276 5156,11268 L 5156,11258 5191,11141 C 5201,11141 5208,11141 5208,11134 5208,11124 5201,11115 5191,11107 L 5083,11107 C 5074,11107 5066,11107 5066,11115 5066,11124 5074,11134 5083,11141 L 5119,11141 5119,11141 Z M 5119,11258 L 5119,11258 Z"/>
       </g>
      </g>
      <g class="com.sun.star.drawing.ClosedBezierShape">
       <g id="id36">
        <rect class="BoundingBox" stroke="none" fill="none" x="3900" y="10884" width="1012" height="1480"/>
        <path fill="rgb(33,33,33)" stroke="none" d="M 4911,0 C 4911,10988 4864,10931 4807,10884 L 4004,10884 C 3947,10884 3900,10884 3900,10931 L 3900,10988 C 3900,12259 3947,12317 4004,12363 L 4807,12363 C 4864,12363 4911,12363 4911,12317 L 4911,12259 Z"/>
       </g>
      </g>
      <g class="com.sun.star.drawing.LineShape">
       <g id="id37">
        <rect class="BoundingBox" stroke="none" fill="none" x="4435" y="10394" width="23" height="548"/>
        <path fill="none" stroke="rgb(0,0,0)" stroke-width="11" stroke-linejoin="round" d="M 4451,0 L 4441,10400"/>
       </g>
      </g>
      <g class="com.sun.star.drawing.ClosedBezierShape">
       <g id="id38">
        <rect class="BoundingBox" stroke="none" fill="none" x="3900" y="11015" width="255" height="276"/>
        <path fill="rgb(0,0,0)" stroke="none" d="M 3901,0 C 3901,11151 3901,11149 3901,11146 3901,11144 3901,11141 3901,11139 3901,11136 3901,11134 3902,11131 3902,11129 3902,11126 3903,11124 3903,11122 3903,11119 3904,11117 3904,11115 3905,11112 3905,11110 3906,11108 3906,11106 3907,11103 3908,11101 3908,11099 3909,11097 3910,11095 3910,11093 3911,11091 3912,11089 3913,11087 3914,11085 3915,11083 3916,11081 3916,11079 3917,11077 3918,11075 3919,11073 3921,11071 3922,11070 3923,11068 3924,11066 3925,11065 3926,11063 3928,11061 3929,11060 3930,11058 3931,11056 3933,11055 3934,11053 3936,11052 3937,11050 3938,11049 3940,11048 3942,11046 3943,11045 3945,11044 3946,11042 3948,11041 3950,11040 3951,11039 3953,11037 3955,11036 3956,11035 3958,11034 3960,11033 3962,11032 3964,11031 3966,11030 3968,11029 3970,11028 3972,11027 3974,11026 3976,11025 3978,11025 3980,11024 3982,11023 3984,11022 3986,11022 3989,11021 3991,11020 3993,11020 3995,11019 3998,11019 4000,11018 4003,11018 4005,11017 4007,11017 4010,11017 4012,11016 4015,11016 4017,11016 4020,11016 4023,11015 4025,11015 4028,11015 4031,11015 4033,11015 4037,11015 4041,11015 4045,11015 4049,11015 4053,11016 4056,11016 4060,11016 4063,11017 4067,11017 4068,11017 4070,11018 4072,11018 4073,11018 4075,11019 4077,11019 4078,11019 4080,11020 4081,11020 4083,11021 4084,11021 4085,11021 4087,11022 4088,11022 4090,11023 4091,11023 4092,11024 4094,11024 4095,11025 4096,11025 4098,11026 4099,11026 4100,11027 4102,11027 4103,11028 4104,11029 4105,11029 4106,11030 4108,11031 4109,11031 4110,11032 4111,11033 4112,11033 4113,11034 4114,11035 4115,11035 4116,11036 4117,11037 4118,11038 4119,11039 4120,11039 4121,11040 4122,11041 4123,11042 4124,11043 4125,11043 4126,11044 4127,11045 4128,11046 4129,11047 4129,11048 4130,11049 4131,11050 4132,11051 4133,11052 4133,11053 4134,11054 4135,11055 4136,11056 4136,11057 4137,11058 4138,11059 4139,11060 4139,11061 4140,11062 4141,11063 4141,11064 4142,11065 4143,11066 4143,11067 4144,11069 4144,11070 4146,11071 4147,11073 4148,11076 4136,11078 4125,11081 4113,11085 4113,11088 4112,11087 4111,11085 4110,11083 4109,11082 4108,11080 4107,11079 4106,11077 4105,11076 4104,11074 4103,11073 4102,11072 4101,11070 4100,11070 4100,11069 4099,11068 4099,11068 4098,11067 4097,11066 4097,11066 4096,11065 4095,11065 4095,11064 4094,11063 4093,11063 4093,11062 4092,11062 4091,11061 4090,11061 4090,11060 4089,11060 4088,11059 4087,11059 4086,11058 4086,11058 4085,11057 4084,11057 4083,11056 4082,11056 4081,11055 4081,11055 4080,11054 4079,11054 4078,11053 4077,11053 4076,11053 4075,11052 4074,11052 4073,11052 4072,11051 4071,11051 4070,11050 4069,11050 4068,11050 4067,11049 4066,11049 4065,11049 4064,11049 4063,11048 4062,11048 4061,11048 4060,11047 4059,11047 4058,11047 4056,11047 4055,11047 4053,11046 4051,11046 4048,11046 4046,11045 4043,11045 4040,11045 4038,11045 4035,11045 4032,11045 4030,11045 4028,11045 4026,11045 4024,11045 4023,11045 4021,11045 4019,11045 4017,11045 4015,11045 4013,11046 4011,11046 4010,11046 4008,11046 4006,11047 4005,11047 4003,11048 4001,11048 4000,11048 3998,11049 3996,11049 3995,11050 3993,11050 3992,11051 3990,11052 3989,11052 3987,11053 3986,11054 3984,11054 3983,11055 3982,11056 3980,11056 3979,11057 3978,11058 3976,11059 3975,11060 3974,11061 3973,11061 3971,11062 3970,11063 3969,11064 3968,11065 3967,11066 3966,11067 3965,11068 3964,11069 3963,11070 3962,11072 3961,11073 3960,11074 3959,11075 3958,11076 3957,11077 3956,11079 3955,11080 3954,11081 3953,11082 3953,11084 3952,11085 3951,11087 3950,11088 3950,11089 3949,11091 3948,11092 3948,11094 3947,11095 3946,11097 3946,11098 3945,11100 3945,11101 3944,11103 3944,11104 3943,11106 3943,11108 3942,11109 3942,11111 3941,11113 3941,11114 3941,11116 3940,11118 3940,11119 3940,11121 3939,11123 3939,11125 3939,11127 3938,11128 3938,11130 3938,11132 3938,11134 3938,11136 3938,11138 3938,11140 3937,11144 3937,11147 3937,11151 3937,11153 3937,11155 3937,11157 3938,11159 3938,11161 3938,11163 3938,11165 3938,11167 3938,11169 3939,11171 3939,11173 3939,11174 3939,11176 3940,11178 3940,11180 3940,11182 3941,11183 3941,11185 3942,11187 3942,11189 3943,11190 3943,11192 3944,11194 3944,11195 3945,11197 3945,11199 3946,11200 3946,11202 3947,11204 3948,11205 3948,11207 3949,11208 3950,11210 3951,11211 3951,11213 3952,11214 3953,11216 3954,11217 3955,11218 3955,11220 3956,11221 3957,11222 3958,11224 3959,11225 3960,11226 3961,11228 3962,11229 3963,11230 3964,11231 3965,11232 3966,11234 3967,11235 3969,11236 3970,11237 3971,11238 3972,11239 3973,11240 3975,11241 3976,11242 3977,11243 3979,11244 3980,11245 3981,11246 3983,11246 3984,11247 3985,11248 3987,11249 3988,11250 3990,11250 3991,11251 3993,11252 3994,11253 3996,11253 3997,11254 3999,11254 4001,11255 4002,11256 4004,11256 4006,11257 4007,11257 4009,11257 4011,11258 4012,11258 4014,11259 4016,11259 4018,11259 4020,11259 4022,11260 4023,11260 4025,11260 4027,11260 4029,11260 4031,11260 4033,11261 4035,11261 4038,11261 4040,11261 4043,11260 4045,11260 4048,11260 4050,11260 4053,11260 4055,11260 4057,11259 4059,11259 4062,11259 4064,11258 4066,11258 4068,11257 4070,11257 4073,11257 4075,11256 4077,11255 4079,11255 4081,11254 4082,11254 4084,11253 4086,11252 4088,11252 4090,11251 4091,11250 4093,11250 4095,11249 4096,11248 4098,11247 4100,11247 4101,11246 4103,11245 4104,11244 4105,11243 4107,11242 4108,11242 4109,11241 4111,11240 4112,11239 4113,11238 4114,11237 4115,11236 4116,11235 4118,11235 4119,11234 4119,11233 4120,11232 4120,11231 4120,11215 4120,11199 4094,11183 4067,11183 4041,11183 4041,11183 4041,11173 4041,11163 4078,11153 4116,11153 4154,11153 4154,11153 4154,11183 4154,11214 4152,11245 4151,11246 4149,11248 4147,11249 4146,11251 4144,11252 4142,11254 4141,11255 4139,11256 4137,11258 4135,11259 4133,11261 4131,11262 4129,11263 4127,11265 4124,11266 4122,11267 4120,11269 4118,11270 4115,11271 4113,11272 4111,11273 4108,11274 4106,11275 4103,11277 4101,11278 4098,11279 4096,11280 4093,11280 4090,11281 4087,11282 4085,11283 4082,11284 4079,11284 4076,11285 4073,11286 4070,11286 4067,11287 4064,11287 4061,11288 4058,11288 4055,11289 4051,11289 4048,11289 4045,11290 4042,11290 4038,11290 4035,11290 4032,11290 4029,11290 4027,11290 4024,11290 4021,11290 4019,11290 4016,11289 4014,11289 4011,11289 4008,11289 4006,11288 4003,11288 4001,11287 3999,11287 3996,11286 3994,11286 3992,11285 3989,11285 3987,11284 3985,11283 3983,11283 3980,11282 3978,11281 3976,11280 3974,11280 3972,11279 3970,11278 3968,11277 3966,11276 3964,11275 3962,11274 3960,11273 3958,11272 3957,11271 3955,11270 3953,11268 3951,11267 3950,11266 3948,11265 3946,11264 3945,11262 3943,11261 3942,11260 3940,11258 3938,11257 3937,11255 3936,11254 3934,11252 3933,11251 3931,11249 3930,11248 3929,11246 3928,11244 3926,11243 3925,11241 3924,11239 3923,11238 3922,11236 3921,11234 3919,11232 3918,11231 3917,11229 3916,11227 3916,11225 3915,11223 3914,11221 3913,11219 3912,11217 3911,11215 3910,11213 3910,11211 3909,11209 3908,11207 3908,11205 3907,11203 3906,11201 3906,11198 3905,11196 3905,11194 3904,11192 3904,11189 3903,11187 3903,11185 3903,11183 3902,11180 3902,11178 3902,11176 3901,11173 3901,11171 3901,11169 3901,11166 3901,11164 3901,11161 3901,11159 3901,11156 3901,11154 Z"/>
       </g>
      </g>
      <g class="com.sun.star.drawing.ClosedBezierShape">
       <g id="id39">
        <rect class="BoundingBox" stroke="none" fill="none" x="4186" y="11019" width="260" height="268"/>
        <path fill="rgb(0,0,0)" stroke="none" d="M 4407,0 C 4397,11286 4387,11260 4377,11234 4336,11208 4296,11208 4255,11208 4245,11208 4235,11234 4224,11260 4212,11286 4199,11286 4187,11286 4223,11286 4259,11197 4296,11108 4309,11019 4323,11019 4337,11019 4373,11019 4408,11108 4444,11197 4432,11286 4419,11286 4407,11286 Z M 4332,11286 C 4330,11092 4328,11086 4326,11081 4324,11076 4323,11071 4321,11067 4320,11062 4319,11059 4317,11055 4317,11051 4317,11050 4316,11049 4316,11048 4316,11048 4316,11047 4316,11047 4316,11047 4316,11047 4316,11047 4316,11046 4316,11046 4316,11046 4316,11046 4316,11046 4316,11047 4316,11047 4316,11047 4315,11047 4315,11047 4315,11048 4315,11048 4314,11049 4314,11050 4313,11052 4312,11055 4311,11059 4309,11062 4307,11067 4306,11072 4304,11077 4302,11082 4300,11087 4289,11092 4277,11121 4266,11150 4299,11180 4333,11180 4366,11180 4354,11180 4343,11150 4332,11121 Z"/>
       </g>
      </g>
      <g class="com.sun.star.drawing.ClosedBezierShape">
       <g id="id40">
        <rect class="BoundingBox" stroke="none" fill="none" x="4427" y="11018" width="222" height="269"/>
        <path fill="rgb(0,0,0)" stroke="none" d="M 4555,0 C 4555,11048 4555,11127 4555,11206 4543,11285 4531,11285 4519,11285 4519,11285 4519,11206 4519,11127 4489,11048 4458,11048 4428,11048 4428,11048 4428,11038 4428,11028 4501,11018 4574,11018 4647,11018 4647,11018 4647,11028 4647,11038 4617,11048 4586,11048 4555,11048 Z"/>
       </g>
      </g>
      <g class="com.sun.star.drawing.ClosedBezierShape">
       <g id="id41">
        <rect class="BoundingBox" stroke="none" fill="none" x="4687" y="11019" width="213" height="268"/>
        <path fill="rgb(0,0,0)" stroke="none" d="M 4688,0 C 4688,11286 4688,11197 4688,11108 4755,11019 4823,11019 4890,11019 4890,11019 4890,11029 4890,11039 4835,11049 4779,11049 4724,11049 4724,11049 4724,11077 4724,11106 4776,11134 4827,11134 4879,11134 4879,11134 4879,11144 4879,11153 4827,11163 4776,11163 4724,11163 4724,11163 4724,11194 4724,11225 4782,11256 4840,11256 4898,11256 4898,11256 4898,11266 4898,11276 4828,11286 4758,11286 4688,11286 Z"/>
       </g>
      </g>
      <g class="com.sun.star.drawing.ClosedBezierShape">
       <g id="id42">
        <rect class="BoundingBox" stroke="none" fill="none" x="5080" y="3991" width="149" height="174"/>
        <path fill="rgb(230,230,230)" stroke="none" d="M 5154,0 C 5200,4164 5228,4164 5228,4138 L 5228,4088 C 5228,4010 5220,3999 5210,3991 5199,3991 5191,3991 5191,3999 L 5191,4010 C 5191,4089 5177,4116 5155,4130 5132,4130 5118,4130 5118,4115 L 5118,4088 C 5118,4010 5110,3999 5100,3991 5090,3991 5081,3991 5081,3999 L 5081,4010 C 5081,4089 5109,4138 5154,4164 Z M 5154,4164 L 5154,4164 Z"/>
       </g>
      </g>
      <g class="com.sun.star.drawing.ClosedBezierShape">
       <g id="id43">
        <rect class="BoundingBox" stroke="none" fill="none" x="4092" y="3900" width="255" height="276"/>
        <path fill="rgb(0,0,0)" stroke="none" d="M 4093,0 C 4093,4036 4093,4034 4093,4031 4093,4029 4093,4026 4093,4024 4093,4021 4093,4019 4094,4016 4094,4014 4094,4011 4095,4009 4095,4007 4095,4004 4096,4002 4096,4000 4097,3997 4097,3995 4098,3993 4098,3991 4099,3988 4100,3986 4100,3984 4101,3982 4102,3980 4102,3978 4103,3976 4104,3974 4105,3972 4106,3970 4107,3968 4108,3966 4108,3964 4109,3962 4110,3960 4111,3958 4113,3956 4114,3955 4115,3953 4116,3951 4117,3950 4118,3948 4120,3946 4121,3945 4122,3943 4123,3941 4125,3940 4126,3938 4128,3937 4129,3935 4130,3934 4132,3933 4134,3931 4135,3930 4137,3929 4138,3927 4140,3926 4142,3925 4143,3924 4145,3922 4147,3921 4148,3920 4150,3919 4152,3918 4154,3917 4156,3916 4158,3915 4160,3914 4162,3913 4164,3912 4166,3911 4168,3910 4170,3910 4172,3909 4174,3908 4176,3907 4178,3907 4181,3906 4183,3905 4185,3905 4187,3904 4190,3904 4192,3903 4195,3903 4197,3902 4199,3902 4202,3902 4204,3901 4207,3901 4209,3901 4212,3901 4215,3900 4217,3900 4220,3900 4223,3900 4225,3900 4229,3900 4233,3900 4237,3900 4241,3900 4245,3901 4248,3901 4252,3901 4255,3902 4259,3902 4260,3902 4262,3903 4264,3903 4265,3903 4267,3904 4269,3904 4270,3904 4272,3905 4273,3905 4275,3906 4276,3906 4277,3906 4279,3907 4280,3907 4282,3908 4283,3908 4284,3909 4286,3909 4287,3910 4288,3910 4290,3911 4291,3911 4292,3912 4294,3912 4295,3913 4296,3914 4297,3914 4298,3915 4300,3916 4301,3916 4302,3917 4303,3918 4304,3918 4305,3919 4306,3920 4307,3920 4308,3921 4309,3922 4310,3923 4311,3924 4312,3924 4313,3925 4314,3926 4315,3927 4316,3928 4317,3928 4318,3929 4319,3930 4320,3931 4321,3932 4321,3933 4322,3934 4323,3935 4324,3936 4325,3937 4325,3938 4326,3939 4327,3940 4328,3941 4328,3942 4329,3943 4330,3944 4331,3945 4331,3946 4332,3947 4333,3948 4333,3949 4334,3950 4335,3951 4335,3952 4336,3954 4336,3955 4338,3956 4339,3958 4340,3961 4328,3963 4317,3966 4305,3970 4305,3973 4304,3972 4303,3970 4302,3968 4301,3967 4300,3965 4299,3964 4298,3962 4297,3961 4296,3959 4295,3958 4294,3957 4293,3955 4292,3955 4292,3954 4291,3953 4291,3953 4290,3952 4289,3951 4289,3951 4288,3950 4287,3950 4287,3949 4286,3948 4285,3948 4285,3947 4284,3947 4283,3946 4282,3946 4282,3945 4281,3945 4280,3944 4279,3944 4278,3943 4278,3943 4277,3942 4276,3942 4275,3941 4274,3941 4273,3940 4273,3940 4272,3939 4271,3939 4270,3938 4269,3938 4268,3938 4267,3937 4266,3937 4265,3937 4264,3936 4263,3936 4262,3935 4261,3935 4260,3935 4259,3934 4258,3934 4257,3934 4256,3934 4255,3933 4254,3933 4253,3933 4252,3932 4251,3932 4250,3932 4248,3932 4247,3932 4245,3931 4243,3931 4240,3931 4238,3930 4235,3930 4232,3930 4230,3930 4227,3930 4224,3930 4222,3930 4220,3930 4218,3930 4216,3930 4215,3930 4213,3930 4211,3930 4209,3930 4207,3930 4205,3931 4203,3931 4202,3931 4200,3931 4198,3932 4197,3932 4195,3933 4193,3933 4192,3933 4190,3934 4188,3934 4187,3935 4185,3935 4184,3936 4182,3937 4181,3937 4179,3938 4178,3939 4176,3939 4175,3940 4174,3941 4172,3941 4171,3942 4170,3943 4168,3944 4167,3945 4166,3946 4165,3946 4163,3947 4162,3948 4161,3949 4160,3950 4159,3951 4158,3952 4157,3953 4156,3954 4155,3955 4154,3957 4153,3958 4152,3959 4151,3960 4150,3961 4149,3962 4148,3964 4147,3965 4146,3966 4145,3967 4145,3969 4144,3970 4143,3972 4142,3973 4142,3974 4141,3976 4140,3977 4140,3979 4139,3980 4138,3982 4138,3983 4137,3985 4137,3986 4136,3988 4136,3989 4135,3991 4135,3993 4134,3994 4134,3996 4133,3998 4133,3999 4133,4001 4132,4003 4132,4004 4132,4006 4131,4008 4131,4010 4131,4012 4130,4013 4130,4015 4130,4017 4130,4019 4130,4021 4130,4023 4130,4025 4129,4029 4129,4032 4129,4036 4129,4038 4129,4040 4129,4042 4130,4044 4130,4046 4130,4048 4130,4050 4130,4052 4130,4054 4131,4056 4131,4058 4131,4059 4131,4061 4132,4063 4132,4065 4132,4067 4133,4068 4133,4070 4134,4072 4134,4074 4135,4075 4135,4077 4136,4079 4136,4080 4137,4082 4137,4084 4138,4085 4138,4087 4139,4089 4140,4090 4140,4092 4141,4093 4142,4095 4143,4096 4143,4098 4144,4099 4145,4101 4146,4102 4147,4103 4147,4105 4148,4106 4149,4107 4150,4109 4151,4110 4152,4111 4153,4113 4154,4114 4155,4115 4156,4116 4157,4117 4158,4119 4159,4120 4161,4121 4162,4122 4163,4123 4164,4124 4165,4125 4167,4126 4168,4127 4169,4128 4171,4129 4172,4130 4173,4131 4175,4131 4176,4132 4177,4133 4179,4134 4180,4135 4182,4135 4183,4136 4185,4137 4186,4138 4188,4138 4189,4139 4191,4139 4193,4140 4194,4141 4196,4141 4198,4142 4199,4142 4201,4142 4203,4143 4204,4143 4206,4144 4208,4144 4210,4144 4212,4144 4214,4145 4215,4145 4217,4145 4219,4145 4221,4145 4223,4145 4225,4146 4227,4146 4230,4146 4232,4146 4235,4145 4237,4145 4240,4145 4242,4145 4245,4145 4247,4145 4249,4144 4251,4144 4254,4144 4256,4143 4258,4143 4260,4142 4262,4142 4265,4142 4267,4141 4269,4140 4271,4140 4273,4139 4274,4139 4276,4138 4278,4137 4280,4137 4282,4136 4283,4135 4285,4135 4287,4134 4288,4133 4290,4132 4292,4132 4293,4131 4295,4130 4296,4129 4297,4128 4299,4127 4300,4127 4301,4126 4303,4125 4304,4124 4305,4123 4306,4122 4307,4121 4308,4120 4310,4120 4311,4119 4311,4118 4312,4117 4312,4116 4312,4100 4312,4084 4286,4068 4259,4068 4233,4068 4233,4068 4233,4058 4233,4048 4270,4038 4308,4038 4346,4038 4346,4038 4346,4068 4346,4099 4344,4130 4343,4131 4341,4133 4339,4134 4338,4136 4336,4137 4334,4139 4333,4140 4331,4141 4329,4143 4327,4144 4325,4146 4323,4147 4321,4148 4319,4150 4316,4151 4314,4152 4312,4154 4310,4155 4307,4156 4305,4157 4303,4158 4300,4159 4298,4160 4295,4162 4293,4163 4290,4164 4288,4165 4285,4165 4282,4166 4279,4167 4277,4168 4274,4169 4271,4169 4268,4170 4265,4171 4262,4171 4259,4172 4256,4172 4253,4173 4250,4173 4247,4174 4243,4174 4240,4174 4237,4175 4234,4175 4230,4175 4227,4175 4224,4175 4221,4175 4219,4175 4216,4175 4213,4175 4211,4175 4208,4174 4206,4174 4203,4174 4200,4174 4198,4173 4195,4173 4193,4172 4191,4172 4188,4171 4186,4171 4184,4170 4181,4170 4179,4169 4177,4168 4175,4168 4172,4167 4170,4166 4168,4165 4166,4165 4164,4164 4162,4163 4160,4162 4158,4161 4156,4160 4154,4159 4152,4158 4150,4157 4149,4156 4147,4155 4145,4153 4143,4152 4142,4151 4140,4150 4138,4149 4137,4147 4135,4146 4134,4145 4132,4143 4130,4142 4129,4140 4128,4139 4126,4137 4125,4136 4123,4134 4122,4133 4121,4131 4120,4129 4118,4128 4117,4126 4116,4124 4115,4123 4114,4121 4113,4119 4111,4117 4110,4116 4109,4114 4108,4112 4108,4110 4107,4108 4106,4106 4105,4104 4104,4102 4103,4100 4102,4098 4102,4096 4101,4094 4100,4092 4100,4090 4099,4088 4098,4086 4098,4083 4097,4081 4097,4079 4096,4077 4096,4074 4095,4072 4095,4070 4095,4068 4094,4065 4094,4063 4094,4061 4093,4058 4093,4056 4093,4054 4093,4051 4093,4049 4093,4046 4093,4044 4093,4041 4093,4039 Z"/>
       </g>
      </g>
      <g class="com.sun.star.drawing.ClosedBezierShape">
       <g id="id44">
        <rect class="BoundingBox" stroke="none" fill="none" x="4378" y="3904" width="260" height="268"/>
        <path fill="rgb(0,0,0)" stroke="none" d="M 4599,0 C 4589,4171 4579,4145 4569,4119 4528,4093 4488,4093 4447,4093 4437,4093 4427,4119 4416,4145 4404,4171 4391,4171 4379,4171 4415,4171 4451,4082 4488,3993 4501,3904 4515,3904 4529,3904 4565,3904 4600,3993 4636,4082 4624,4171 4611,4171 4599,4171 Z M 4524,4171 C 4522,3977 4520,3971 4518,3966 4516,3961 4515,3956 4513,3952 4512,3947 4511,3944 4509,3940 4509,3936 4509,3935 4508,3934 4508,3933 4508,3933 4508,3932 4508,3932 4508,3932 4508,3932 4508,3932 4508,3931 4508,3931 4508,3931 4508,3931 4508,3931 4508,3932 4508,3932 4508,3932 4507,3932 4507,3932 4507,3933 4507,3933 4506,3934 4506,3935 4505,3937 4504,3940 4503,3944 4501,3947 4499,3952 4498,3957 4496,3962 4494,3967 4492,3972 4481,3977 4469,4006 4458,4035 4491,4065 4525,4065 4558,4065 4546,4065 4535,4035 4524,4006 Z"/>
       </g>
      </g>
      <g class="com.sun.star.drawing.ClosedBezierShape">
       <g id="id45">
        <rect class="BoundingBox" stroke="none" fill="none" x="4619" y="3903" width="222" height="269"/>
        <path fill="rgb(0,0,0)" stroke="none" d="M 4747,0 C 4747,3933 4747,4012 4747,4091 4735,4171 4723,4171 4711,4171 4711,4171 4711,4091 4711,4012 4681,3933 4650,3933 4620,3933 4620,3933 4620,3923 4620,3913 4693,3903 4766,3903 4839,3903 4839,3903 4839,3913 4839,3923 4809,3933 4778,3933 4747,3933 Z"/>
       </g>
      </g>
      <g class="com.sun.star.drawing.ClosedBezierShape">
       <g id="id46">
        <rect class="BoundingBox" stroke="none" fill="none" x="4879" y="3904" width="213" height="268"/>
        <path fill="rgb(0,0,0)" stroke="none" d="M 4880,0 C 4880,4171 4880,4082 4880,3993 4947,3904 5015,3904 5082,3904 5082,3904 5082,3914 5082,3924 5027,3934 4971,3934 4916,3934 4916,3934 4916,3962 4916,3991 4968,4019 5019,4019 5071,4019 5071,4019 5071,4029 5071,4038 5019,4048 4968,4048 4916,4048 4916,4048 4916,4079 4916,4110 4974,4141 5032,4141 5090,4141 5090,4141 5090,4151 5090,4161 5020,4171 4950,4171 4880,4171 Z"/>
       </g>
      </g>
      <g class="Group">
       <g class="com.sun.star.drawing.ClosedBezierShape">
        <g id="id47">
         <rect class="BoundingBox" stroke="none" fill="none" x="2258" y="4708" width="222" height="269"/>
         <path fill="rgb(0,0,0)" stroke="none" d="M 2386,0 C 2386,4738 2386,4817 2386,4896 2374,4976 2362,4976 2350,4976 2350,4976 2350,4896 2350,4817 2320,4738 2289,4738 2259,4738 2259,4738 2259,4728 2259,4718 2332,4708 2405,4708 2478,4708 2478,4708 2478,4718 2478,4728 2448,4738 2417,4738 2386,4738 Z"/>
        </g>
       </g>
       <g class="com.sun.star.drawing.ClosedBezierShape">
        <g id="id48">
         <rect class="BoundingBox" stroke="none" fill="none" x="2522" y="4709" width="38" height="268"/>
         <path fill="rgb(0,0,0)" stroke="none" d="M 2523,0 C 2523,4976 2523,4887 2523,4798 2535,4709 2547,4709 2559,4709 2559,4709 2559,4798 2559,4887 2547,4976 2535,4976 2523,4976 Z"/>
        </g>
       </g>
       <g class="com.sun.star.drawing.ClosedBezierShape">
        <g id="id49">
         <rect class="BoundingBox" stroke="none" fill="none" x="2628" y="4709" width="262" height="268"/>
         <path fill="rgb(0,0,0)" stroke="none" d="M 2856,0 C 2856,4976 2856,4917 2856,4857 2856,4798 2856,4791 2856,4785 2856,4778 2856,4772 2857,4766 2857,4760 2857,4754 2858,4747 2856,4741 2854,4747 2852,4754 2850,4760 2848,4766 2847,4772 2845,4778 2843,4783 2841,4789 2818,4794 2795,4855 2772,4915 2763,4976 2755,4976 2746,4976 2723,4976 2700,4915 2677,4855 2676,4794 2676,4794 2676,4793 2676,4793 2676,4792 2675,4792 2675,4791 2675,4790 2674,4789 2673,4787 2672,4785 2672,4782 2671,4779 2670,4777 2669,4774 2668,4771 2667,4768 2666,4765 2664,4762 2662,4755 2660,4748 2660,4741 2660,4748 2660,4755 2660,4762 2661,4768 2661,4775 2661,4781 2661,4786 2661,4792 2661,4798 2661,4857 2661,4917 2650,4976 2640,4976 2629,4976 2629,4976 2629,4887 2629,4798 2645,4709 2661,4709 2676,4709 2700,4709 2724,4771 2747,4833 2748,4894 2750,4898 2751,4901 2752,4904 2753,4908 2754,4912 2755,4916 2756,4920 2757,4924 2758,4928 2758,4930 2759,4931 2759,4933 2759,4934 2759,4934 2759,4935 2759,4936 2759,4936 2759,4937 2760,4936 2760,4936 2760,4935 2760,4934 2760,4934 2761,4933 2761,4931 2761,4930 2763,4928 2764,4924 2765,4920 2766,4916 2768,4912 2769,4908 2769,4904 2770,4902 2771,4900 2771,4899 2771,4898 2771,4897 2772,4896 2772,4896 2772,4895 2795,4894 2819,4833 2842,4771 2857,4709 2873,4709 2888,4709 2888,4709 2888,4798 2888,4887 2878,4976 2867,4976 2856,4976 Z"/>
        </g>
       </g>
       <g class="com.sun.star.drawing.ClosedBezierShape">
        <g id="id50">
         <rect class="BoundingBox" stroke="none" fill="none" x="2954" y="4709" width="213" height="268"/>
         <path fill="rgb(0,0,0)" stroke="none" d="M 2955,0 C 2955,4976 2955,4887 2955,4798 3022,4709 3090,4709 3157,4709 3157,4709 3157,4719 3157,4729 3102,4739 3046,4739 2991,4739 2991,4739 2991,4767 2991,4796 3043,4824 3094,4824 3146,4824 3146,4824 3146,4834 3146,4843 3094,4853 3043,4853 2991,4853 2991,4853 2991,4884 2991,4915 3049,4946 3107,4946 3165,4946 3165,4946 3165,4956 3165,4966 3095,4976 3025,4976 2955,4976 Z"/>
        </g>
       </g>
      </g>
      <g class="Group">
       <g class="com.sun.star.drawing.PolyPolygonShape">
        <g id="id51">
         <rect class="BoundingBox" stroke="none" fill="none" x="2534" y="12335" width="326" height="348"/>
         <path fill="rgb(0,0,0)" stroke="none" d="M 2808,0 L 2808,12682 2808,12463 2807,12442 2806,12433 2805,12425 2804,12417 2802,12411 2801,12405 2800,12403 2799,12400 2798,12398 2797,12396 2795,12394 2794,12393 2793,12391 2791,12390 2789,12388 2788,12387 2786,12386 2784,12385 2782,12384 2780,12384 2777,12383 2775,12383 2773,12383 2770,12383 2766,12383 2763,12383 2760,12384 2757,12384 2755,12385 2752,12386 2750,12388 2747,12389 2745,12391 2743,12393 2741,12395 2739,12397 2737,12400 2735,12402 2734,12405 2732,12408 2731,12412 2728,12415 2726,12423 2725,12433 2723,12443 2722,12454 2721,12466 2721,12494 2672,12682 2672,12682 2671,12463 2669,12444 2668,12428 2666,12421 2664,12414 2662,12408 2659,12403 2657,12398 2653,12394 2650,12391 2646,12388 2642,12386 2638,12384 2633,12383 2630,12383 2627,12383 2624,12383 2621,12384 2618,12384 2616,12385 2613,12386 2611,12387 2608,12389 2606,12391 2604,12392 2602,12394 2600,12397 2599,12399 2597,12402 2596,12404 2594,12407 2593,12411 2591,12414 2589,12423 2587,12433 2586,12444 2585,12457 2585,12472 2585,12506 2534,12682 2534,12682 2574,12342 2582,12342 2585,12388 2591,12388 2594,12376 2597,12370 2600,12365 2604,12361 2607,12356 2611,12352 2615,12349 2619,12346 2624,12343 2628,12341 2633,12339 2637,12338 2642,12337 2647,12336 2654,12336 2660,12336 2665,12337 2671,12338 2676,12340 2680,12342 2685,12344 2689,12347 2693,12350 2697,12354 2700,12358 2703,12363 2706,12368 2709,12373 2711,12379 2713,12386 2715,12392 2721,12392 2725,12379 2728,12373 2732,12368 2736,12363 2740,12358 2744,12354 2748,12350 2753,12347 2757,12344 2762,12342 2767,12340 2772,12338 2778,12337 2783,12336 2793,12336 2797,12336 2802,12337 2806,12338 2810,12339 2814,12340 2817,12341 2821,12343 2824,12345 2827,12347 2830,12350 2833,12352 2836,12355 2838,12358 2841,12361 2843,12365 2845,12368 2847,12372 2848,12377 2852,12381 2854,12391 2856,12403 2857,12415 2858,12429 2859,12444 2859,12460 2808,12682 Z"/>
        </g>
       </g>
       <g class="com.sun.star.drawing.PolyPolygonShape">
        <g id="id52">
         <rect class="BoundingBox" stroke="none" fill="none" x="2922" y="12336" width="311" height="353"/>
         <path fill="rgb(0,0,0)" stroke="none" d="M 3076,0 L 3059,12688 3052,12687 3044,12686 3036,12685 3029,12683 3022,12681 3015,12679 3008,12676 3002,12673 2995,12669 2989,12665 2983,12661 2977,12656 2966,12651 2961,12640 2956,12634 2951,12627 2947,12621 2943,12614 2939,12607 2933,12599 2929,12584 2925,12567 2923,12550 2923,12531 2923,12511 2925,12492 2928,12473 2933,12455 2939,12439 2942,12423 2946,12416 2950,12409 2955,12402 2959,12395 2965,12389 2970,12383 2975,12377 2981,12372 2987,12367 2994,12362 3000,12358 3007,12354 3014,12351 3021,12348 3028,12345 3036,12343 3044,12341 3060,12339 3078,12337 3094,12336 3110,12337 3117,12339 3125,12341 3132,12343 3139,12345 3146,12348 3153,12351 3159,12355 3165,12359 3171,12363 3177,12368 3183,12373 3188,12378 3193,12384 3198,12390 3203,12396 3207,12403 3211,12410 3214,12417 3220,12424 3225,12440 3229,12456 3231,12474 3231,12492 3231,12511 3229,12531 3225,12550 3221,12568 3215,12585 3211,12600 3207,12608 3203,12615 3199,12622 3194,12628 3189,12635 3183,12641 3178,12646 3172,12652 3166,12657 3160,12661 3153,12666 3146,12670 3139,12673 3132,12676 3125,12679 3117,12681 3109,12683 3093,12685 3076,12687 Z M 3077,12688 L 3089,12641 3100,12641 3110,12639 3119,12637 3128,12633 3136,12629 3143,12623 3149,12616 3155,12609 3160,12600 3164,12591 3167,12580 3170,12568 3172,12556 3173,12542 3173,12527 3173,12511 3172,12496 3170,12481 3167,12468 3164,12455 3159,12444 3155,12433 3149,12423 3142,12415 3135,12407 3127,12401 3119,12395 3109,12391 3099,12387 3088,12385 3076,12383 3065,12383 3054,12383 3044,12385 3035,12387 3026,12391 3018,12395 3011,12401 3005,12407 2999,12415 2994,12423 2990,12433 2987,12444 2984,12455 2982,12468 2981,12481 2981,12496 2981,12511 2982,12527 2984,12542 2987,12556 2990,12568 2994,12580 2999,12591 3005,12600 3011,12609 3018,12616 3026,12623 3035,12629 3044,12633 3055,12637 3065,12639 3077,12641 Z"/>
        </g>
       </g>
       <g class="com.sun.star.drawing.PolyPolygonShape">
        <g id="id53">
         <rect class="BoundingBox" stroke="none" fill="none" x="3310" y="12200" width="291" height="489"/>
         <path fill="rgb(0,0,0)" stroke="none" d="M 3546,0 L 3543,12637 3539,12637 3534,12643 3529,12649 3524,12654 3518,12659 3513,12664 3507,12668 3501,12672 3494,12675 3488,12678 3481,12681 3474,12683 3467,12685 3459,12686 3452,12687 3444,12688 3428,12688 3421,12687 3414,12686 3407,12685 3401,12683 3394,12681 3388,12679 3382,12676 3376,12673 3371,12670 3365,12666 3360,12662 3355,12657 3350,12653 3346,12647 3342,12642 3338,12636 3334,12630 3330,12623 3324,12616 3319,12602 3315,12586 3313,12570 3311,12552 3310,12533 3311,12513 3313,12492 3315,12473 3319,12455 3324,12438 3330,12423 3338,12408 3342,12395 3346,12389 3351,12383 3355,12377 3360,12372 3365,12367 3371,12362 3376,12358 3382,12354 3388,12351 3394,12348 3401,12345 3407,12343 3414,12341 3421,12339 3428,12338 3444,12337 3451,12336 3459,12336 3466,12337 3474,12338 3481,12339 3487,12341 3494,12343 3500,12345 3506,12348 3512,12352 3518,12355 3524,12359 3529,12364 3534,12369 3539,12374 3543,12380 3547,12386 3544,12386 3543,12353 3543,12342 3543,12335 3600,12200 3600,12200 3554,12682 3546,12682 Z M 3543,12637 L 3543,12525 3543,12513 3542,12496 3540,12480 3538,12466 3535,12453 3531,12441 3529,12430 3527,12425 3524,12421 3522,12416 3519,12413 3516,12409 3513,12406 3509,12402 3506,12400 3502,12397 3498,12394 3494,12392 3489,12390 3485,12388 3480,12387 3475,12386 3464,12385 3453,12383 3443,12383 3433,12383 3425,12385 3416,12387 3409,12391 3402,12395 3396,12401 3390,12408 3385,12415 3381,12424 3377,12434 3374,12444 3372,12456 3370,12469 3369,12483 3370,12513 3372,12543 3374,12557 3377,12569 3381,12581 3385,12591 3390,12601 3396,12609 3402,12617 3409,12623 3417,12629 3425,12633 3434,12637 3443,12639 3454,12641 3465,12641 3476,12641 3481,12640 3485,12639 3490,12637 3494,12636 3498,12634 3502,12633 3506,12631 3509,12628 3513,12626 3516,12623 3519,12620 3521,12617 3524,12614 3526,12610 3528,12607 3530,12602 3534,12598 3537,12589 3540,12578 3541,12566 3543,12554 3543,12540 Z"/>
        </g>
       </g>
      </g>
      <g class="Group">
       <g class="com.sun.star.drawing.ClosedBezierShape">
        <g id="id54">
         <rect class="BoundingBox" stroke="none" fill="none" x="1699" y="12100" width="458" height="801"/>
         <path fill="rgb(0,0,0)" stroke="none" d="M 1700,0 L 1700,12861 C 1769,12732 1827,12759 1873,12773 1920,12773 1957,12773 1983,12762 2009,12739 2022,12715 2022,12682 L 2022,12639 2156,12100 2156,12100 C 2156,12638 2131,12718 2080,12781 2030,12829 1963,12876 1880,12900 1805,12900 1745,12900 1700,12887 Z"/>
        </g>
       </g>
       <g class="com.sun.star.drawing.PolyPolygonShape">
        <g id="id55">
         <rect class="BoundingBox" stroke="none" fill="none" x="2352" y="12100" width="448" height="792"/>
         <path fill="rgb(0,0,0)" stroke="none" d="M 2353,0 L 2353,12890 2487,12100 2487,12100 2799,12762 2799,12762 2353,12890 Z"/>
        </g>
       </g>
      </g>
      <g class="Group">
       <g class="com.sun.star.drawing.PolyPolygonShape">
        <g id="id56">
         <rect class="BoundingBox" stroke="none" fill="none" x="1415" y="948" width="383" height="534"/>
         <path fill="rgb(0,0,0)" stroke="none" d="M 1653,0 L 1559,1481 1559,1481 1415,1034 1415,1034 1796,948 1796,948 1653,1034 1653,1034 Z"/>
        </g>
       </g>
       <g class="com.sun.star.drawing.PolyPolygonShape">
        <g id="id57">
         <rect class="BoundingBox" stroke="none" fill="none" x="1880" y="948" width="298" height="534"/>
         <path fill="rgb(0,0,0)" stroke="none" d="M 2177,0 L 1880,1481 1880,1481 1982,1410 1982,1403 1880,1026 1880,1019 2177,948 2177,948 2076,1019 2076,1026 2177,1403 2177,1410 Z"/>
        </g>
       </g>
       <g class="com.sun.star.drawing.ClosedBezierShape">
        <g id="id58">
         <rect class="BoundingBox" stroke="none" fill="none" x="2265" y="948" width="377" height="534"/>
         <path fill="rgb(0,0,0)" stroke="none" d="M 2413,0 L 2326,1481 2329,1029 C 2341,1028 2347,1087 2347,1133 L 2347,1165 2266,1481 2266,1481 2378,948 2453,948 2451,1371 2527,1371 2641,948 2641,948 2559,1481 2559,1481 C 2559,1161 2564,1137 2575,1093 L 2578,1029 2490,1030 2413,1481 Z"/>
        </g>
       </g>
       <g class="com.sun.star.drawing.PolyPolygonShape">
        <g id="id59">
         <rect class="BoundingBox" stroke="none" fill="none" x="2724" y="948" width="321" height="534"/>
         <path fill="rgb(0,0,0)" stroke="none" d="M 3044,0 L 2725,1481 2725,1481 3044,948 3044,948 2818,1034 2818,1034 3031,1161 3031,1161 2818,1246 2818,1246 3044,1395 3044,1395 Z"/>
        </g>
       </g>
       <g class="com.sun.star.drawing.ClosedBezierShape">
        <g id="id60">
         <rect class="BoundingBox" stroke="none" fill="none" x="3137" y="947" width="381" height="535"/>
         <path fill="rgb(0,0,0)" stroke="none" d="M 3231,0 L 3231,1273 3137,1481 3137,1481 3275,948 C 3404,948 3468,948 3468,1000 3468,1106 3438,1178 3376,1226 L 3517,1248 3407,1481 3286,1481 3231,1273 Z M 3231,1273 L 3273,1189 C 3308,1189 3334,1189 3349,1183 3365,1170 3372,1158 3372,1137 3372,1109 3365,1081 3350,1061 3335,1050 3308,1038 3271,1032 L 3231,1032 3231,1032 Z"/>
        </g>
       </g>
       <g class="com.sun.star.drawing.ClosedBezierShape">
        <g id="id61">
         <rect class="BoundingBox" stroke="none" fill="none" x="3545" y="941" width="357" height="548"/>
         <path fill="rgb(0,0,0)" stroke="none" d="M 3546,0 L 3546,1459 C 3606,1366 3658,1391 3703,1403 3773,1403 3809,1403 3809,1381 3809,1335 3802,1316 3788,1301 3774,1290 3744,1279 3696,1265 3646,1248 3609,1231 3586,1209 3563,1183 3552,1158 3552,1124 3552,1084 3568,1039 3601,1004 3634,979 3678,954 3732,941 3787,941 3841,941 3894,952 L 3862,975 C 3810,1058 3766,1037 3730,1027 3672,1027 3643,1027 3643,1046 3643,1084 3650,1103 3663,1119 3675,1131 3704,1143 3749,1157 3808,1173 3848,1194 3869,1216 3890,1240 3901,1264 3901,1294 3901,1332 3883,1381 3848,1419 3813,1447 3765,1474 3703,1488 3640,1488 3587,1488 3546,1478 Z"/>
        </g>
       </g>
      </g>
      <g class="com.sun.star.drawing.TextShape">
       <g id="id62">
        <rect class="BoundingBox" stroke="none" fill="none" x="-5300" y="-300" width="2" height="3801"/>
       </g>
      </g>
      <g class="Group">
       <g class="com.sun.star.drawing.PolyPolygonShape">
        <g id="id63">
         <rect class="BoundingBox" stroke="none" fill="none" x="375" y="3886" width="138" height="202"/>
         <path fill="rgb(0,0,0)" stroke="none" d="M 401,0 L 401,4004 376,4087 376,4087 425,3886 433,3886 442,3886 449,3887 456,3888 463,3890 468,3892 474,3894 478,3897 483,3900 486,3904 489,3908 492,3913 494,3918 495,3924 496,3930 496,3936 496,3943 496,3948 495,3953 494,3957 492,3961 491,3965 489,3969 486,3973 484,3976 481,3980 478,3983 474,3986 470,3988 466,3991 461,3993 457,3995 511,3997 481,4087 433,4087 401,4004 Z M 401,4004 L 424,3982 430,3982 435,3982 440,3982 444,3981 449,3980 450,3979 452,3978 454,3977 456,3976 457,3975 459,3974 460,3973 461,3972 462,3971 464,3969 465,3968 465,3966 466,3965 467,3963 468,3961 468,3960 469,3958 470,3954 470,3949 470,3944 469,3940 468,3935 468,3931 467,3929 466,3928 465,3926 465,3924 464,3923 463,3921 461,3920 460,3919 459,3918 457,3916 456,3915 454,3914 452,3914 449,3913 444,3911 440,3910 435,3909 429,3908 423,3908 401,3908 401,3908 Z"/>
        </g>
       </g>
       <g class="com.sun.star.drawing.PolyPolygonShape">
        <g id="id64">
         <rect class="BoundingBox" stroke="none" fill="none" x="548" y="3885" width="118" height="203"/>
         <path fill="rgb(0,0,0)" stroke="none" d="M 665,0 L 549,4087 549,4087 665,3885 665,3885 574,3908 574,3908 659,3971 659,3971 574,3993 574,3993 665,4064 665,4064 Z"/>
        </g>
       </g>
       <g class="com.sun.star.drawing.PolyPolygonShape">
        <g id="id65">
         <rect class="BoundingBox" stroke="none" fill="none" x="708" y="3883" width="132" height="208"/>
         <path fill="rgb(0,0,0)" stroke="none" d="M 708,0 L 708,4080 716,4056 723,4059 730,4061 737,4063 744,4065 751,4066 758,4067 765,4068 777,4068 782,4067 787,4067 791,4066 795,4065 798,4063 802,4062 804,4060 807,4057 809,4055 811,4052 812,4049 813,4046 813,4043 814,4039 813,4035 813,4031 813,4028 812,4026 812,4025 811,4024 811,4022 810,4021 809,4019 808,4018 807,4017 806,4016 805,4015 804,4014 801,4013 798,4011 794,4009 789,4007 778,4004 765,4000 758,3994 751,3992 745,3989 740,3986 735,3983 731,3980 727,3977 723,3974 721,3970 719,3967 718,3965 716,3963 714,3959 713,3954 712,3950 711,3945 711,3940 711,3934 712,3928 712,3925 713,3923 714,3920 714,3918 715,3915 717,3913 718,3910 719,3908 721,3906 723,3904 725,3902 727,3900 729,3898 731,3897 733,3895 738,3893 744,3891 750,3888 756,3886 763,3885 770,3884 777,3883 785,3883 793,3883 800,3884 807,3885 814,3886 821,3887 828,3889 835,3891 826,3894 819,3916 813,3914 806,3912 800,3910 794,3908 788,3907 782,3906 776,3906 771,3906 767,3906 762,3906 759,3907 755,3907 752,3908 749,3910 746,3911 744,3913 741,3915 740,3917 738,3919 737,3922 736,3925 736,3928 736,3931 736,3934 736,3938 737,3941 738,3944 738,3946 739,3947 739,3948 740,3950 741,3951 742,3952 743,3954 744,3955 745,3956 746,3957 747,3958 751,3959 754,3961 759,3964 764,3966 769,3968 782,3970 790,3975 798,3978 804,3981 810,3984 816,3988 820,3991 824,3994 826,3997 827,3999 830,4000 832,4004 834,4007 836,4011 837,4015 838,4019 838,4024 839,4028 838,4033 838,4040 837,4043 837,4046 836,4049 835,4052 834,4054 833,4057 831,4060 830,4062 828,4064 826,4067 824,4069 822,4071 820,4073 817,4075 815,4077 812,4078 809,4080 803,4082 797,4084 789,4086 782,4088 774,4089 765,4090 757,4090 748,4090 740,4089 733,4089 726,4088 720,4086 714,4085 708,4083 Z"/>
        </g>
       </g>
       <g class="com.sun.star.drawing.PolyPolygonShape">
        <g id="id66">
         <rect class="BoundingBox" stroke="none" fill="none" x="887" y="3885" width="118" height="203"/>
         <path fill="rgb(0,0,0)" stroke="none" d="M 1004,0 L 888,4087 888,4087 1004,3885 1004,3885 913,3908 913,3908 998,3971 998,3971 913,3993 913,3993 1004,4064 1004,4064 Z"/>
        </g>
       </g>
       <g class="com.sun.star.drawing.PolyPolygonShape">
        <g id="id67">
         <rect class="BoundingBox" stroke="none" fill="none" x="1041" y="3885" width="142" height="203"/>
         <path fill="rgb(0,0,0)" stroke="none" d="M 1124,0 L 1099,4087 1099,4087 1041,3908 1041,3908 1182,3885 1182,3885 1124,3908 1124,3908 Z"/>
        </g>
       </g>
      </g>
      <g class="Group">
       <g class="com.sun.star.drawing.PolyPolygonShape">
        <g id="id68">
         <rect class="BoundingBox" stroke="none" fill="none" x="393" y="7403" width="138" height="202"/>
         <path fill="rgb(0,0,0)" stroke="none" d="M 419,0 L 419,7521 394,7604 394,7604 443,7403 451,7403 460,7403 467,7404 474,7405 481,7407 486,7409 492,7411 496,7414 501,7417 504,7421 507,7425 510,7430 512,7435 513,7441 514,7447 514,7453 514,7460 514,7465 513,7470 512,7474 510,7478 509,7482 507,7486 504,7490 502,7493 499,7497 496,7500 492,7503 488,7505 484,7508 479,7510 475,7512 529,7514 499,7604 451,7604 419,7521 Z M 419,7521 L 442,7499 448,7499 453,7499 458,7499 462,7498 467,7497 468,7496 470,7495 472,7494 474,7493 475,7492 477,7491 478,7490 479,7489 480,7488 482,7486 483,7485 483,7483 484,7482 485,7480 486,7478 486,7477 487,7475 488,7471 488,7466 488,7461 487,7457 486,7452 486,7448 485,7446 484,7445 483,7443 483,7441 482,7440 481,7438 479,7437 478,7436 477,7435 475,7433 474,7432 472,7431 470,7431 467,7430 462,7428 458,7427 453,7426 447,7425 441,7425 419,7425 419,7425 Z"/>
        </g>
       </g>
       <g class="com.sun.star.drawing.PolyPolygonShape">
        <g id="id69">
         <rect class="BoundingBox" stroke="none" fill="none" x="566" y="7402" width="118" height="203"/>
         <path fill="rgb(0,0,0)" stroke="none" d="M 683,0 L 567,7604 567,7604 683,7402 683,7402 592,7425 592,7425 677,7488 677,7488 592,7510 592,7510 683,7581 683,7581 Z"/>
        </g>
       </g>
       <g class="com.sun.star.drawing.PolyPolygonShape">
        <g id="id70">
         <rect class="BoundingBox" stroke="none" fill="none" x="726" y="7399" width="132" height="209"/>
         <path fill="rgb(0,0,0)" stroke="none" d="M 726,0 L 726,7597 734,7573 741,7576 748,7578 755,7580 762,7582 769,7583 776,7584 783,7585 795,7585 800,7584 805,7584 809,7583 813,7582 816,7580 820,7579 822,7577 825,7574 827,7572 829,7569 830,7566 831,7563 831,7560 832,7556 831,7552 831,7548 831,7545 830,7543 830,7542 829,7541 829,7539 828,7538 827,7536 826,7535 825,7534 824,7533 823,7532 822,7531 819,7530 816,7528 812,7526 807,7524 796,7521 783,7517 776,7511 769,7509 763,7506 758,7503 753,7500 749,7497 745,7494 741,7491 739,7487 737,7484 736,7482 734,7480 732,7476 731,7471 730,7467 729,7462 729,7457 729,7451 730,7445 730,7442 731,7440 732,7437 732,7435 733,7432 735,7430 736,7427 737,7425 739,7423 741,7421 743,7419 745,7417 747,7415 749,7414 751,7412 756,7410 762,7408 768,7405 774,7403 781,7402 788,7401 795,7400 803,7400 811,7400 818,7401 825,7402 832,7403 839,7404 846,7406 853,7408 844,7411 837,7433 831,7431 824,7429 818,7427 812,7425 806,7424 800,7423 794,7423 789,7423 785,7423 780,7423 777,7424 773,7424 770,7425 767,7427 764,7428 762,7430 759,7432 758,7434 756,7436 755,7439 754,7442 754,7445 754,7448 754,7451 754,7455 755,7458 756,7461 756,7463 757,7464 757,7465 758,7467 759,7468 760,7469 761,7471 762,7472 763,7473 764,7474 765,7475 769,7476 772,7478 777,7481 782,7483 787,7485 800,7487 808,7492 816,7495 822,7498 828,7501 834,7505 838,7508 842,7511 844,7514 845,7516 848,7517 850,7521 852,7524 854,7528 855,7532 856,7536 856,7541 857,7545 856,7550 856,7557 855,7560 855,7563 854,7566 853,7569 852,7571 851,7574 849,7577 848,7579 846,7581 844,7584 842,7586 840,7588 838,7590 835,7592 833,7594 830,7595 827,7597 821,7599 815,7601 807,7603 800,7605 792,7606 783,7607 775,7607 766,7607 758,7606 751,7606 744,7605 738,7603 732,7602 726,7600 Z"/>
        </g>
       </g>
       <g class="com.sun.star.drawing.PolyPolygonShape">
        <g id="id71">
         <rect class="BoundingBox" stroke="none" fill="none" x="905" y="7402" width="118" height="203"/>
         <path fill="rgb(0,0,0)" stroke="none" d="M 1022,0 L 906,7604 906,7604 1022,7402 1022,7402 931,7425 931,7425 1016,7488 1016,7488 931,7510 931,7510 1022,7581 1022,7581 Z"/>
        </g>
       </g>
       <g class="com.sun.star.drawing.PolyPolygonShape">
        <g id="id72">
         <rect class="BoundingBox" stroke="none" fill="none" x="1059" y="7402" width="142" height="203"/>
         <path fill="rgb(0,0,0)" stroke="none" d="M 1142,0 L 1117,7604 1117,7604 1059,7425 1059,7425 1200,7402 1200,7402 1142,7425 1142,7425 Z"/>
        </g>
       </g>
      </g>
      <g class="Group">
       <g class="com.sun.star.drawing.PolyPolygonShape">
        <g id="id73">
         <rect class="BoundingBox" stroke="none" fill="none" x="393" y="10996" width="138" height="202"/>
         <path fill="rgb(0,0,0)" stroke="none" d="M 419,0 L 419,11114 394,11197 394,11197 443,10996 451,10996 460,10996 467,10997 474,10998 481,11000 486,11002 492,11004 496,11007 501,11010 504,11014 507,11018 510,11023 512,11028 513,11034 514,11040 514,11046 514,11053 514,11058 513,11063 512,11067 510,11071 509,11075 507,11079 504,11083 502,11086 499,11090 496,11093 492,11096 488,11098 484,11101 479,11103 475,11105 529,11107 499,11197 451,11197 419,11114 Z M 419,11114 L 442,11092 448,11092 453,11092 458,11092 462,11091 467,11090 468,11089 470,11088 472,11087 474,11086 475,11085 477,11084 478,11083 479,11082 480,11081 482,11079 483,11078 483,11076 484,11075 485,11073 486,11071 486,11070 487,11068 488,11064 488,11059 488,11054 487,11050 486,11045 486,11041 485,11039 484,11038 483,11036 483,11034 482,11033 481,11031 479,11030 478,11029 477,11028 475,11026 474,11025 472,11024 470,11024 467,11023 462,11021 458,11020 453,11019 447,11018 441,11018 419,11018 419,11018 Z"/>
        </g>
       </g>
       <g class="com.sun.star.drawing.PolyPolygonShape">
        <g id="id74">
         <rect class="BoundingBox" stroke="none" fill="none" x="566" y="10995" width="118" height="203"/>
         <path fill="rgb(0,0,0)" stroke="none" d="M 683,0 L 567,11197 567,11197 683,10995 683,10995 592,11018 592,11018 677,11081 677,11081 592,11103 592,11103 683,11174 683,11174 Z"/>
        </g>
       </g>
       <g class="com.sun.star.drawing.PolyPolygonShape">
        <g id="id75">
         <rect class="BoundingBox" stroke="none" fill="none" x="726" y="10992" width="132" height="209"/>
         <path fill="rgb(0,0,0)" stroke="none" d="M 726,0 L 726,11191 734,11166 741,11169 748,11171 755,11173 762,11175 769,11176 776,11177 783,11178 795,11178 800,11177 805,11177 809,11176 813,11175 816,11173 820,11172 822,11170 825,11167 827,11165 829,11162 830,11159 831,11156 831,11153 832,11149 831,11145 831,11141 831,11138 830,11136 830,11135 829,11134 829,11132 828,11131 827,11129 826,11128 825,11127 824,11126 823,11125 822,11124 819,11123 816,11121 812,11119 807,11117 796,11114 783,11110 776,11104 769,11102 763,11099 758,11096 753,11093 749,11090 745,11087 741,11084 739,11080 737,11077 736,11075 734,11073 732,11069 731,11064 730,11060 729,11055 729,11050 729,11044 730,11038 730,11035 731,11033 732,11030 732,11028 733,11025 735,11023 736,11020 737,11018 739,11016 741,11014 743,11012 745,11010 747,11008 749,11007 751,11005 756,11003 762,11001 768,10998 774,10996 781,10995 788,10994 795,10993 803,10993 811,10993 818,10994 825,10995 832,10996 839,10997 846,10999 853,11001 844,11004 837,11026 831,11024 824,11022 818,11020 812,11018 806,11017 800,11016 794,11016 789,11016 785,11016 780,11016 777,11017 773,11017 770,11018 767,11020 764,11021 762,11023 759,11025 758,11027 756,11029 755,11032 754,11035 754,11038 754,11041 754,11044 754,11048 755,11051 756,11054 756,11056 757,11057 757,11058 758,11060 759,11061 760,11062 761,11064 762,11065 763,11066 764,11067 765,11068 769,11069 772,11071 777,11074 782,11076 787,11078 800,11080 808,11085 816,11088 822,11091 828,11094 834,11098 838,11101 842,11104 844,11107 845,11109 848,11110 850,11114 852,11117 854,11121 855,11125 856,11129 856,11134 857,11138 856,11143 856,11150 855,11153 855,11156 854,11159 853,11162 852,11164 851,11167 849,11170 848,11172 846,11174 844,11177 842,11179 840,11181 838,11183 835,11185 833,11187 830,11188 827,11190 821,11192 815,11194 807,11196 800,11198 792,11199 783,11200 775,11200 766,11200 758,11199 751,11199 744,11198 738,11196 732,11195 726,11193 Z"/>
        </g>
       </g>
       <g class="com.sun.star.drawing.PolyPolygonShape">
        <g id="id76">
         <rect class="BoundingBox" stroke="none" fill="none" x="905" y="10995" width="118" height="203"/>
         <path fill="rgb(0,0,0)" stroke="none" d="M 1022,0 L 906,11197 906,11197 1022,10995 1022,10995 931,11018 931,11018 1016,11081 1016,11081 931,11103 931,11103 1022,11174 1022,11174 Z"/>
        </g>
       </g>
       <g class="com.sun.star.drawing.PolyPolygonShape">
        <g id="id77">
         <rect class="BoundingBox" stroke="none" fill="none" x="1059" y="10995" width="142" height="203"/>
         <path fill="rgb(0,0,0)" stroke="none" d="M 1142,0 L 1117,11197 1117,11197 1059,11018 1059,11018 1200,10995 1200,10995 1142,11018 1142,11018 Z"/>
        </g>
       </g>
      </g>
     </g>
    </g>
   </g>
  </g>
 </g>
</svg>